<?xml version="1.0" standalone="no"?><!DOCTYPE svg PUBLIC "-//W3C//DTD SVG 1.1//EN" "http://www.w3.org/Graphics/SVG/1.1/DTD/svg11.dtd"><svg t="1532417081792" class="icon" style="" viewBox="0 0 2899 1024" version="1.1" xmlns="http://www.w3.org/2000/svg" p-id="1941" xmlns:xlink="http://www.w3.org/1999/xlink" width="135.890625" height="48"><defs><style type="text/css"></style></defs><path d="M215.04 564.122c-21.606 2.15-62.157 11.673-84.326 31.232-66.56 57.753-26.676 163.379 107.776 163.379 78.13 0 156.262-49.869 217.6-129.587-87.04-42.496-161.024-72.91-241.05-65.024z m501.76 73.01c124.467 41.575 152.678 43.777 152.678 43.777V233.984a138.24 138.24 0 0 0-138.24-138.24H143.36A138.24 138.24 0 0 0 5.12 233.984v585.78a138.24 138.24 0 0 0 138.24 138.24h587.725a138.24 138.24 0 0 0 138.24-138.24v-5.684s-224.82-93.44-338.381-147.866c-76.134 93.39-174.387 150.119-276.48 150.119-172.442 0-231.014-150.477-149.402-249.549 17.818-21.555 48.128-42.189 95.13-53.76 73.523-18.022 190.566 11.264 300.237 47.36a599.706 599.706 0 0 0 48.691-118.63H211.2v-34.202h174.08v-61.44H174.643V312.32H385.69v-87.398a14.49 14.49 0 0 1 14.95-14.695h85.197V312.32h208.691v34.15H485.837v61.44H656.23a694.17 694.17 0 0 1-72.14 181.71c51.712 18.636 98.099 36.3 132.71 47.871z" fill="#25ABEE" p-id="1942"></path><path d="M2484.94 202.7h280.27v55.502h100.096V192.46a1.434 1.434 0 0 1 0-0.41 26.675 26.675 0 0 0-25.908-26.982H2677.35v-51.712h-104.755v51.712h-187.75v93.133h100.096z m-678.092-84.582l-102.605 242.74h78.695v288.819h86.118v-383.13h-31.18l64.87-148.429h-95.898z m1038.49 412.11a16.333 16.333 0 0 0-15.36-11.726h-83.456l24.166 81.613h-98.048V442.061h192.41V404.48h-192.41v-74.394h192.41v-37.632h-480.256v37.632h192.41v74.394h-192.36v37.632h192.41v158.003h-192.41v37.632h491.982l-0.41-1.28h0.41z m-818.279-213.146a19.968 19.968 0 0 0-17.715-11.316h-74.547l58.06 182.836h88.167z" fill="#394144" p-id="1943"></path><path d="M2215.731 122.522h-89.497v93.542h-220.519v37.632h220.519v336.128a15.36 15.36 0 0 1-14.439 14.08h-45.465v38.963h115.968A35.328 35.328 0 0 0 2215.73 608V253.645h36.352v-37.581h-36.352zM1598.464 614.4a1060.25 1060.25 0 0 1-197.222-94.003c73.676-54.528 138.24-128.563 163.84-227.584h-171.725v-61.44h199.27v-38.451h-199.27v-78.03h-88.832a17.92 17.92 0 0 0-17.613 18.228v59.802h-197.888v38.348h197.888v61.44h-167.014v38.35h332.8s-18.432 71.986-109.67 149.35c-81.92-61.748-109.108-111.053-109.108-111.053h-89.395c36.096 62.566 87.398 112.64 142.643 152.473-50.74 32.973-116.582 64.768-201.677 90.215v46.08a900.403 900.403 0 0 0 258.202-99.533 924.314 924.314 0 0 0 254.771 99.328z m-413.645 113.92l-81.92 222.771h41.677l15.36-44.851h81.92l14.848 44.851h41.677l-81.92-222.771z m-14.848 149.811l31.949-92.16 30.72 92.16z m351.437-149.811h-40.038v222.771h134.86v-30.31h-94.822V728.32z m293.018 0h40.09v222.771h-40.09z m340.275 0h-86.58v222.771h40.039V865.28h46.54c43.214 0 73.37-28.211 73.37-68.557s-30.156-68.403-73.37-68.403z m-2.253 106.547h-44.288V758.63h44.288c22.22 0 35.533 19.456 35.533 38.247s-12.442 37.99-35.482 37.99z m304.794-106.547l-81.92 222.771h41.676l15.36-44.851h81.92l14.848 44.851h41.677l-81.92-222.771z m-15.002 149.811l31.949-92.16 30.72 92.16z m352.102-149.811l-43.724 94.925-44.39-94.925h-43.265l67.43 131.277v91.494h39.783v-91.494l0.256-0.512 67.226-130.765h-43.316z" fill="#394144" p-id="1944"></path></svg>