<svg xmlns="http://www.w3.org/2000/svg" width="28.406" height="22.5" viewBox="0 0 28.406 22.5">
  <path id="路径_1127" data-name="路径 1127" d="M90.022,135.157v-1.818a3.353,3.353,0,0,0-3.121-3.309h-9l-.371-.65a2.163,2.163,0,0,0-1.9-1.068h-9.6a2.843,2.843,0,0,0-2.9,2.77v16.96a2.842,2.842,0,0,0,2.9,2.769h22.6a2.842,2.842,0,0,0,2.9-2.769v-10.41A3.32,3.32,0,0,0,90.022,135.157ZM86.9,131.693c.621,0,1.329.877,1.329,1.645v1.15l-.091,0H80.446l-1.595-2.793H86.9Zm2.836,16.35a1.11,1.11,0,0,1-1.112,1.106h-22.6a1.11,1.11,0,0,1-1.112-1.106v-16.96a1.111,1.111,0,0,1,1.112-1.107h9.6a.356.356,0,0,1,.313.179l3.17,5.552a.909.909,0,0,0,.792.442h8.232a1.977,1.977,0,0,1,1.6,1.484v10.41Z" transform="translate(-63.124 -128.312)" fill="#6d6d6d"/>
</svg>
