<svg xmlns="http://www.w3.org/2000/svg" width="31.996" height="31.996" viewBox="0 0 31.996 31.996">
  <g id="组_2370" data-name="组 2370" transform="translate(-284 -962)">
    <path id="路径_1189" data-name="路径 1189" d="M110.014,70.976a16,16,0,1,0,16,16A16.015,16.015,0,0,0,110.014,70.976Zm0,29.7a13.7,13.7,0,1,1,13.7-13.7A13.719,13.719,0,0,1,110.014,100.676Z" transform="translate(189.984 891.024)" fill="#fff"/>
    <path id="路径_1192" data-name="路径 1192" d="M382.005,324.13a1.389,1.389,0,0,0-1.385,1.385v11.939a1.385,1.385,0,0,0,2.77,0V325.515A1.389,1.389,0,0,0,382.005,324.13Zm-8.309,0a1.389,1.389,0,0,0-1.385,1.385v11.939a1.385,1.385,0,1,0,2.77,0V325.515A1.389,1.389,0,0,0,373.7,324.13Z" transform="translate(-77.853 646.485)" fill="#fff"/>
  </g>
</svg>
