<svg xmlns="http://www.w3.org/2000/svg" width="31.996" height="31.996" viewBox="0 0 31.996 31.996">
  <g id="组_2308" data-name="组 2308" transform="translate(-94.016 -70.976)">
    <path id="路径_1189" data-name="路径 1189" d="M110.014,70.976a16,16,0,1,0,16,16A16.015,16.015,0,0,0,110.014,70.976Zm0,29.7a13.7,13.7,0,1,1,13.7-13.7A13.719,13.719,0,0,1,110.014,100.676Z" fill="#fff"/>
    <path id="路径_1190" data-name="路径 1190" d="M417.152,361.211c0,1.263.9,1.779,1.988,1.148l7.876-4.548a1.213,1.213,0,0,0,0-2.3l-7.876-4.55c-1.095-.631-1.988-.115-1.988,1.148Z" transform="translate(-311.546 -269.687)" fill="#fff"/>
  </g>
</svg>
