<svg xmlns="http://www.w3.org/2000/svg" width="11.487" height="13.19" viewBox="0 0 11.487 13.19">
  <g id="组_2265" data-name="组 2265" transform="translate(-411.847 -126.998)">
    <path id="路径_1178" data-name="路径 1178" d="M6974.436-5030.641v6.088s2.164,4.226,5.266,4.411c.05-.151,4.545-1.342,5.266-4.729-.2-2.146-.319-5.769-.319-5.769l-5.165-1.627Z" transform="translate(-6562 5160)" fill="#fff"/>
    <g id="组_2264" data-name="组 2264" transform="translate(287.521 60.136)">
      <path id="路径_1174" data-name="路径 1174" d="M135.811,68.78l-.568-.009a8.489,8.489,0,0,1-2.6-.538,11.7,11.7,0,0,1-2.228-1.134l-.342-.238-.342.238a11.732,11.732,0,0,1-2.228,1.134,8.461,8.461,0,0,1-2.6.538l-.572.009v5.545c0,2.784,3.735,5.727,5.743,5.727s5.744-2.943,5.744-5.727l0-5.545Zm-5.742,10.449c-1.668,0-4.92-2.647-4.92-4.9V69.583A9.348,9.348,0,0,0,127.8,69a13.231,13.231,0,0,0,2.273-1.142A12.847,12.847,0,0,0,132.34,69a9.39,9.39,0,0,0,2.648.582l0,4.742c0,2.257-3.253,4.9-4.921,4.9Z" fill="#1878f3"/>
      <path id="路径_1175" data-name="路径 1175" d="M487.5,540.44l-2.2,2.2-.923-1.047a.412.412,0,1,0-.617.544l1.212,1.376a.411.411,0,0,0,.3.138h.013a.411.411,0,0,0,.291-.12l2.512-2.508a.412.412,0,0,0-.582-.584Z" transform="translate(-354.009 -466.444)" fill="#1878f3"/>
      <path id="路径_1176" data-name="路径 1176" d="M293.111,289.857a7.981,7.981,0,0,1,.607-.552,2.994,2.994,0,0,0-.985-.692,1.9,1.9,0,1,0-2.319,0,2.952,2.952,0,0,0-1.786,2.708.412.412,0,1,0,.823,0,2.12,2.12,0,0,1,3.66-1.461Zm-1.535-3.823a1.079,1.079,0,1,1-1.08,1.08A1.081,1.081,0,0,1,291.576,286.034Z" transform="translate(-161.868 -215.114)" fill="#1878f3"/>
    </g>
  </g>
</svg>
