<svg xmlns="http://www.w3.org/2000/svg" width="20.743" height="17.978" viewBox="0 0 20.743 17.978">
  <g id="组_1829" data-name="组 1829" transform="translate(-32 -94)">
    <path id="路径_1049" data-name="路径 1049" d="M480.691,176.595A.691.691,0,0,1,480,175.9V160.691a.691.691,0,0,1,1.383,0V175.9A.691.691,0,0,1,480.691,176.595Z" transform="translate(-438.32 -64.617)" />
    <path id="路径_1050" data-name="路径 1050" d="M50.608,113.978H34.135A2.137,2.137,0,0,1,32,111.843V98.135A2.137,2.137,0,0,1,34.135,96h5.348a3.582,3.582,0,0,1,2.889,1.467A3.582,3.582,0,0,1,45.261,96h5.348a2.137,2.137,0,0,1,2.135,2.135v13.706A2.137,2.137,0,0,1,50.608,113.978ZM34.135,97.383a.752.752,0,0,0-.752.752v13.706a.752.752,0,0,0,.752.752H50.606a.752.752,0,0,0,.752-.752V98.135a.752.752,0,0,0-.752-.752H45.261a2.2,2.2,0,0,0-2.2,2.2.691.691,0,0,1-1.383,0,2.2,2.2,0,0,0-2.2-2.2Z" transform="translate(0 -2)" />
  </g>
</svg>
