<svg xmlns="http://www.w3.org/2000/svg" width="19.816" height="19.816" viewBox="0 0 19.816 19.816">
  <path id="路径_965" data-name="路径 965" d="M67.565,65.963c0,6.137,4.261,9.862,10.128,9.862a14.524,14.524,0,0,0,4.032-.512c.66-.2.87-.54.87-.884a.611.611,0,0,0-.64-.606,1.994,1.994,0,0,0-.449.065A13.894,13.894,0,0,1,78,74.353c-5.236,0-8.79-3.073-8.79-8.334,0-5.038,3.363-8.549,8.427-8.549,4.481,0,8.227,2.691,8.227,7.525,0,2.821-.984,4.721-2.551,4.721a1.489,1.489,0,0,1-1.653-1.611V61.792a.727.727,0,0,0-.764-.811.741.741,0,0,0-.784.811v1.061h-.086a3.258,3.258,0,0,0-3.1-1.871c-2.474,0-4.214,2.058-4.214,5.009,0,2.98,1.729,5.057,4.252,5.057a3.3,3.3,0,0,0,3.172-2.1h.086a2.6,2.6,0,0,0,2.838,2.114c2.666,0,4.319-2.551,4.319-6.127,0-5.411-4.09-8.921-9.727-8.921-5.933,0-10.089,3.957-10.089,9.955Zm9.66,3.613c-1.72,0-2.8-1.387-2.8-3.595,0-2.169,1.089-3.557,2.809-3.557,1.748,0,2.857,1.36,2.857,3.52,0,2.207-1.128,3.632-2.866,3.632Z" transform="translate(-67.565 -56.008)" fill="#777"/>
</svg>
