<?xml version="1.0" standalone="no"?><!DOCTYPE svg PUBLIC "-//W3C//DTD SVG 1.1//EN" "http://www.w3.org/Graphics/SVG/1.1/DTD/svg11.dtd"><svg t="1600857269791" class="icon" viewBox="0 0 1024 1024" version="1.1" xmlns="http://www.w3.org/2000/svg" p-id="5056" xmlns:xlink="http://www.w3.org/1999/xlink" width="200" height="200"><defs><style type="text/css"></style></defs><path d="M512.832 64a448 448 0 1 1 0 896 448 448 0 0 1 0-896z m0 44.8a403.2 403.2 0 1 0 0 806.4 403.2 403.2 0 0 0 0-806.4z" p-id="5057"></path><path d="M668.416 358.272a21.312 21.312 0 0 1 3.072 26.24l-3.072 3.904-125.824 125.888 124.864 124.864a19.968 19.968 0 0 1-25.472 30.592l-2.816-2.304-124.864-124.864-125.888 125.824a21.312 21.312 0 0 1-33.28-26.304l3.136-3.84 125.824-125.888-124.928-124.928a20.032 20.032 0 0 1 25.536-30.592l2.752 2.304 124.928 124.928 125.888-125.824c8.32-8.32 21.76-8.32 30.144 0z" p-id="5058"></path></svg>