<svg xmlns="http://www.w3.org/2000/svg" width="14.016" height="7.008" viewBox="0 0 14.016 7.008">
  <path id="路径_1203" data-name="路径 1203" d="M138.473,326.582a8.057,8.057,0,0,1-6.89-3.633.656.656,0,1,1,1.117-.687,7.036,7.036,0,0,0,11.57-.044.658.658,0,1,1,1.125.682,8.046,8.046,0,0,1-6.921,3.682Zm-2.672,2.326a.64.64,0,0,1-.253-.049.658.658,0,0,1-.354-.86l1.041-2.49a.658.658,0,1,1,1.214.505l-1.041,2.49A.658.658,0,0,1,135.8,328.909Zm-3.492-1.959a.648.648,0,0,1-.518-.253.656.656,0,0,1,.115-.922l2-1.538a.656.656,0,1,1,.8,1.037l-2,1.542A.654.654,0,0,1,132.309,326.95Zm8.862,1.959a.658.658,0,0,1-.607-.4l-1.041-2.49a.658.658,0,1,1,1.214-.505l1.041,2.49a.654.654,0,0,1-.354.86A.626.626,0,0,1,141.171,328.909Zm3.492-1.959a.665.665,0,0,1-.4-.133l-2-1.542a.656.656,0,1,1,.8-1.037l2,1.538a.654.654,0,0,1-.4,1.174Z" transform="translate(-131.474 -321.901)" fill="#b5b5b5"/>
</svg>
