<svg xmlns="http://www.w3.org/2000/svg" width="11.55" height="12.03" viewBox="0 0 11.55 12.03">
  <g id="组_2237" data-name="组 2237" transform="translate(-129.035 -129.78)">
    <path id="路径_1164" data-name="路径 1164" d="M359.534,135.714a.5.5,0,0,1-.725-.695l.876-.917a1.979,1.979,0,0,0-.191-2.694,1.74,1.74,0,0,0-2.518-.2l-2.447,2.568a1.979,1.979,0,0,0,.191,2.694.5.5,0,1,1-.715.71,2.981,2.981,0,0,1-.191-4.084l2.448-2.553a2.729,2.729,0,0,1,3.978.2,2.981,2.981,0,0,1,.176,4.039Z" transform="translate(-220.534)"/>
    <path id="路径_1165" data-name="路径 1165" d="M130.62,415.834a.5.5,0,0,1,.725.7l-.876.917a1.979,1.979,0,0,0,.191,2.694,1.74,1.74,0,0,0,2.518.2l2.447-2.568a1.979,1.979,0,0,0-.191-2.694.5.5,0,1,1,.715-.71,2.981,2.981,0,0,1,.191,4.084L133.894,421a2.729,2.729,0,0,1-3.978-.2,2.981,2.981,0,0,1-.176-4.039Z" transform="translate(0 -279.958)"/>
  </g>
</svg>
