<svg xmlns="http://www.w3.org/2000/svg" width="17.421" height="17.421" viewBox="0 0 17.421 17.421">
  <defs>
    <style>
      .cls-1 {
        
      }
    </style>
  </defs>
  <path id="路径_1062" data-name="路径 1062" class="cls-1" d="M172.5,196.535a.622.622,0,0,1-.622-.622v-6.844a.622.622,0,1,1,1.245,0v6.844a.621.621,0,0,1-.622.622m-3.733,0a.622.622,0,0,1-.622-.622v-6.844a.622.622,0,1,1,1.245,0v6.844a.622.622,0,0,1-.622.622m9.956-10.576h-3.111v-1.245a1.862,1.862,0,0,0-1.853-1.867H167.52a1.869,1.869,0,0,0-1.866,1.867v1.245h-3.112a.622.622,0,0,0,0,1.245h16.177a.622.622,0,0,0,0-1.245M166.9,184.715a.623.623,0,0,1,.622-.622h6.236a.608.608,0,0,1,.608.622v1.245H166.9v-1.245m8.091,15.554h-8.713a1.868,1.868,0,0,1-1.866-1.866v-9.341a.622.622,0,1,1,1.245,0V198.4a.624.624,0,0,0,.622.622h8.713a.622.622,0,0,0,.622-.622v-9.316a.622.622,0,1,1,1.245,0V198.4a1.871,1.871,0,0,1-1.868,1.866M174.989,200.269Z" transform="translate(-161.92 -182.848)"/>
</svg>
