<svg xmlns="http://www.w3.org/2000/svg" width="19.819" height="19.816" viewBox="0 0 19.819 19.816">
  <path id="路径_964" data-name="路径 964" d="M9.909,19.816A9.908,9.908,0,0,1,2.9,2.9,9.91,9.91,0,0,1,16.92,16.914a9.855,9.855,0,0,1-7.011,2.9Zm0-18.525A8.618,8.618,0,0,0,3.815,16,8.62,8.62,0,0,0,16.007,3.814a8.566,8.566,0,0,0-6.1-2.523ZM6.389,12.612a4.334,4.334,0,0,0,3.52,1.856,5.563,5.563,0,0,0,3.906-1.856.873.873,0,0,1,.876.928,5.954,5.954,0,0,1-4.782,2.165A4.649,4.649,0,0,1,5.586,13.54s-.032-.928.8-.928Zm.64-5.89A1.213,1.213,0,1,0,8.243,7.936,1.215,1.215,0,0,0,7.029,6.722Zm6.219,0a1.213,1.213,0,1,0,1.214,1.214,1.214,1.214,0,0,0-1.214-1.214Z" transform="translate(0)" fill="#777"/>
</svg>
