<svg xmlns="http://www.w3.org/2000/svg" width="20.768" height="18.459" viewBox="0 0 20.768 18.459">
  <g id="组_1952" data-name="组 1952" transform="translate(-123.139 -166.374)">
    <path id="路径_1063" data-name="路径 1063" d="M125.083,184.833h-.024a2.231,2.231,0,0,1-1.353-.506,1.97,1.97,0,0,1-.563-1.266q0-.018,0-.037v-3.651a3.807,3.807,0,0,1,.153-1.223,4.531,4.531,0,0,1,.422-.992l1.833-3.243c.009-.016.019-.032.029-.047a2.938,2.938,0,0,1,.786-.783,2.287,2.287,0,0,1,1.134-.3h11.623a3.008,3.008,0,0,1,1.175.322,3.349,3.349,0,0,1,.864.781q.02.026.038.055l2.177,3.449c.009.015.019.031.027.047a4.124,4.124,0,0,1,.5,1.858v3.681a1.817,1.817,0,0,1-.583,1.348,2.229,2.229,0,0,1-1.424.5H125.083ZM124.9,177.9a3.368,3.368,0,0,0-.269.654,2.423,2.423,0,0,0-.1.748q0,.025,0,.049v3.66a.636.636,0,0,0,.118.3l.009.01.011.008a1.06,1.06,0,0,0,.42.117H141.9a.89.89,0,0,0,.494-.147.431.431,0,0,0,.121-.265v-3.677a2.72,2.72,0,0,0-.329-1.232l-.008-.014-2.136-3.385-.007-.008a2.016,2.016,0,0,0-.43-.395,1.7,1.7,0,0,0-.549-.139H127.5a.965.965,0,0,0-.4.087,1.6,1.6,0,0,0-.349.354l-.005.008-1.821,3.222-.02.033h0Zm8.561-6.131a.7.7,0,0,1-.7-.7v-4a.7.7,0,0,1,1.391,0v4a.7.7,0,0,1-.7.7Zm4.664-.026a.7.7,0,0,1-.54-1.134l1.59-1.961a.7.7,0,0,1,1.081.876l-1.59,1.961a.691.691,0,0,1-.54.258h0Zm-9.25-.053a.691.691,0,0,1-.543-.262l-1.563-1.961a.7.7,0,0,1,.11-.978.7.7,0,0,1,.978.11l1.563,1.961a.7.7,0,0,1-.543,1.129Z" transform="translate(0)" fill="#b5b5b5"/>
    <path id="路径_1064" data-name="路径 1064" d="M139.581,603.134a3.366,3.366,0,0,1-3.274-2.526l-.03-.12-6.178,0a.7.7,0,0,1,0-1.392l6.8,0a.7.7,0,0,1,.7.7,1.981,1.981,0,0,0,3.962,0,.7.7,0,0,1,.7-.7l6.74,0a.7.7,0,0,1,0,1.392l-6.115,0-.031.12A3.361,3.361,0,0,1,139.581,603.134Z" transform="translate(-6.097 -421.163)" fill="#b5b5b5"/>
  </g>
</svg>
