<svg xmlns="http://www.w3.org/2000/svg" width="18.438" height="17.978" viewBox="0 0 18.438 17.978">
  <path id="路径_1045" data-name="路径 1045" d="M90.727,113.726a1.631,1.631,0,0,1-2.262-.552,1.671,1.671,0,0,1-.194-1.241l1-4.283a.284.284,0,0,0-.087-.278L85.9,104.507a1.668,1.668,0,0,1-.178-2.328,1.635,1.635,0,0,1,1.118-.578l4.315-.351a.26.26,0,0,0,.217-.164l1.662-4.066a1.635,1.635,0,0,1,3.033,0l1.662,4.066a.259.259,0,0,0,.217.164l4.315.352a1.662,1.662,0,0,1,.94,2.906l-3.288,2.865a.284.284,0,0,0-.087.278l1,4.283a1.657,1.657,0,0,1-1.213,1.993,1.627,1.627,0,0,1-1.243-.2l-3.694-2.3a.244.244,0,0,0-.26,0l-3.695,2.3Zm4.684-3.47,3.694,2.3a.244.244,0,0,0,.187.03.275.275,0,0,0,.193-.333l-1-4.283A1.667,1.667,0,0,1,99,106.329l3.288-2.865a.28.28,0,0,0,.094-.189.269.269,0,0,0-.237-.3l-4.315-.352a1.642,1.642,0,0,1-1.384-1.019l-1.662-4.066a.266.266,0,0,0-.141-.146.252.252,0,0,0-.331.146l-1.663,4.066a1.642,1.642,0,0,1-1.384,1.019l-4.315.352a.252.252,0,0,0-.172.09.286.286,0,0,0,.029.395l3.288,2.865a1.667,1.667,0,0,1,.525,1.636l-1,4.283a.288.288,0,0,0,.033.213.249.249,0,0,0,.347.089l3.695-2.3A1.627,1.627,0,0,1,95.411,110.256Z" transform="translate(-85.332 -95.995)" />
</svg>
