<svg xmlns="http://www.w3.org/2000/svg" width="18.438" height="17.978" viewBox="0 0 18.438 17.978">
  <path id="路径_1045" data-name="路径 1045" d="M90.727,113.726a1.631,1.631,0,0,1-2.262-.552,1.671,1.671,0,0,1-.194-1.241l1-4.283a.284.284,0,0,0-.087-.278L85.9,104.507a1.668,1.668,0,0,1-.178-2.328,1.635,1.635,0,0,1,1.118-.578l4.315-.351a.26.26,0,0,0,.217-.164l1.662-4.066a1.635,1.635,0,0,1,3.033,0l1.662,4.066a.259.259,0,0,0,.217.164l4.315.352a1.662,1.662,0,0,1,.94,2.906l-3.288,2.865a.284.284,0,0,0-.087.278l1,4.283a1.657,1.657,0,0,1-1.213,1.993,1.627,1.627,0,0,1-1.243-.2l-3.694-2.3a.244.244,0,0,0-.26,0l-3.695,2.3Z" transform="translate(-85.332 -95.995)" fill="#8590a6"/>
</svg>
