<svg id="组件_3_1" data-name="组件 3 – 1" xmlns="http://www.w3.org/2000/svg" width="14.01" height="11.97" viewBox="0 0 14.01 11.97">
  <path id="路径_690" data-name="路径 690" d="M47.316,103.829a3.4,3.4,0,0,1,2.368.963l.321.313.321-.313a3.4,3.4,0,0,1,5.767,2.437,2.7,2.7,0,0,1-.153.856.934.934,0,0,0-.046.214.46.46,0,0,0,.458.458c.222,0,.382-.222.451-.374a4.282,4.282,0,0,0-6.791-4.53h0a4.316,4.316,0,0,0-7,3.376c0,3.04,4.973,6.569,6.485,7.57a.11.11,0,0,0,.023.015.818.818,0,0,0,.237.069.46.46,0,0,0,.458-.458.443.443,0,0,0-.214-.382h0c-1.9-1.222-6.088-4.4-6.088-6.814A3.418,3.418,0,0,1,47.316,103.829Z" transform="translate(-43.008 -102.912)"/>
  <path id="路径_691" data-name="路径 691" d="M52.71,103.829a3.4,3.4,0,0,0-2.368.963l-.321.313-.321-.313a3.4,3.4,0,0,0-5.768,2.437,2.7,2.7,0,0,0,.153.856.935.935,0,0,1,.046.214.46.46,0,0,1-.458.458c-.222,0-.382-.222-.451-.374a4.282,4.282,0,0,1,6.791-4.53h0a4.316,4.316,0,0,1,7.005,3.376c0,3.04-4.973,6.569-6.486,7.57a.11.11,0,0,1-.023.015.818.818,0,0,1-.237.069.46.46,0,0,1-.458-.458.443.443,0,0,1,.214-.382h0c1.9-1.222,6.088-4.4,6.088-6.814A3.418,3.418,0,0,0,52.71,103.829Z" transform="translate(-43.008 -102.912)"/>
</svg>
