<svg id="组_842" data-name="组 842" xmlns="http://www.w3.org/2000/svg" width="15.961" height="13.478" viewBox="0 0 15.961 13.478">
  <path id="路径_675" data-name="路径 675" d="M11.344,0A4.629,4.629,0,0,0,7.98,1.453,4.618,4.618,0,0,0,0,4.617,6.155,6.155,0,0,0,1.624,8.634a13.563,13.563,0,0,0,1.74,1.675,25,25,0,0,0,2.11,1.548L7.98,13.478l2.507-1.621a24.94,24.94,0,0,0,2.11-1.548,13.629,13.629,0,0,0,1.74-1.675,6.156,6.156,0,0,0,1.624-4.017A4.623,4.623,0,0,0,11.344,0Zm2.237,7.993a12.713,12.713,0,0,1-1.613,1.551A23.944,23.944,0,0,1,9.95,11.025L7.98,12.3,6.012,11.024A23.926,23.926,0,0,1,4,9.543,12.583,12.583,0,0,1,2.383,7.992,5.19,5.19,0,0,1,.993,4.617a3.625,3.625,0,0,1,6.582-2.1l.4.571.4-.571a3.626,3.626,0,0,1,6.584,2.1A5.2,5.2,0,0,1,13.58,7.993Z" />
  <path id="路径_676" data-name="路径 676" d="M242.614,508.459a22.22,22.22,0,0,1-1.845-1.355,10.855,10.855,0,0,1-1.379-1.32.372.372,0,0,0-.567.482,11.615,11.615,0,0,0,1.473,1.413,23.136,23.136,0,0,0,1.914,1.405.372.372,0,0,0,.4-.626Z" transform="translate(-235.592 -498.997)" />
</svg>
