<svg xmlns="http://www.w3.org/2000/svg" width="18.155" height="17.653" viewBox="0 0 18.155 17.653">
  <path id="路径_1051" data-name="路径 1051" d="M17.69,7.042a2.469,2.469,0,0,0-1.915-.888H11.5a7.455,7.455,0,0,0,.442-1.96,4.542,4.542,0,0,0-.473-2.625A3.133,3.133,0,0,0,9.082.028,1.655,1.655,0,0,0,7.832.3c-.688.5-.814,1.453-.961,2.556a6.762,6.762,0,0,1-.695,2.6A2.539,2.539,0,0,1,3.715,6.562H2.06a1.962,1.962,0,0,0-2,1.918v7.252a1.962,1.962,0,0,0,2,1.92H14.115a2.521,2.521,0,0,0,1.518-.507,2.348,2.348,0,0,0,.861-1.3l1.659-6.807a2.261,2.261,0,0,0-.464-1.99Z" transform="translate(-0.063 0.001)" fill="#8590a6"/>
</svg>
