<svg xmlns="http://www.w3.org/2000/svg" width="16.559" height="18.829" viewBox="0 0 16.559 18.829">
  <path id="路径_1163" data-name="路径 1163" d="M77.728,7.918a3.51,3.51,0,0,1-3.485.016,3.473,3.473,0,0,1-.995-.842L69.58,9.209a3.487,3.487,0,0,1,.251,2.479,3.547,3.547,0,0,1-.25.662l3.667,2.117a3.473,3.473,0,0,1,.995-.842,3.51,3.51,0,0,1,3.485.016,3.512,3.512,0,0,1-.026,6.1,3.513,3.513,0,0,1-5.01-4.309l-3.762-2.172a3.512,3.512,0,0,1-5.531-.722,3.512,3.512,0,0,1,3.038-5.268,3.529,3.529,0,0,1,1.732.455,3.484,3.484,0,0,1,.759.579l3.763-2.173a3.513,3.513,0,0,1,1.525-4.294,3.512,3.512,0,0,1,1.753-.471h0a3.51,3.51,0,0,1,3.044,1.756,3.511,3.511,0,0,1-1.285,4.8ZM73.962,6.037a2.32,2.32,0,0,0,3.171.85,2.321,2.321,0,0,0,.85-3.171,2.32,2.32,0,0,0-3.17-.85,2.321,2.321,0,0,0-.85,3.171ZM68.449,9.619a2.32,2.32,0,0,0-3.171-.85,2.321,2.321,0,0,0-.85,3.171,2.32,2.32,0,0,0,3.171.85,2.321,2.321,0,0,0,.85-3.17ZM75.969,19a2.33,2.33,0,0,0,2.013-1.161,2.322,2.322,0,0,0-2.007-3.482,2.33,2.33,0,0,0-2.013,1.161A2.322,2.322,0,0,0,75.969,19Z" transform="translate(-62.926 -1.365)" />
</svg>
