<svg id="icon-loading" xmlns="http://www.w3.org/2000/svg" width="65" height="65" viewBox="0 0 65 65">
  <rect id="Rectangle_388" data-name="Rectangle 388" width="65" height="65" fill="#d8d8d8" opacity="0"/>
  <g id="Oval_4" data-name="Oval 4" transform="translate(1.818 1.818)" fill="none" stroke-linecap="round">
    <path d="M30.682,0A30.682,30.682,0,1,1,0,30.682,30.682,30.682,0,0,1,30.682,0Z" stroke="none"/>
    <path d="M 30.6819953918457 2.999996185302734 C 26.94363021850586 2.999996185302734 23.31867218017578 3.731483459472656 19.90782928466797 5.174152374267578 C 16.61183929443359 6.568241119384766 13.65110778808594 8.564628601074219 11.10786056518555 11.10786056518555 C 8.564628601074219 13.65110778808594 6.568241119384766 16.61183929443359 5.174152374267578 19.90782928466797 C 3.731483459472656 23.31867218017578 2.999996185302734 26.94363021850586 2.999996185302734 30.6819953918457 C 2.999996185302734 34.42036437988281 3.731483459472656 38.04530715942383 5.174152374267578 41.45615005493164 C 6.568241119384766 44.75214004516602 8.564628601074219 47.71288299560547 11.10786056518555 50.25611877441406 C 13.65109634399414 52.79935073852539 16.61183929443359 54.79573822021484 19.90782928466797 56.18982696533203 C 23.31867218017578 57.63249588012695 26.94363021850586 58.36398315429688 30.6819953918457 58.36398315429688 C 34.42036437988281 58.36398315429688 38.04530715942383 57.63249588012695 41.45615005493164 56.18982696533203 C 44.75214004516602 54.79573822021484 47.71288299560547 52.79935073852539 50.25611877441406 50.25611877441406 C 52.79935073852539 47.71288299560547 54.79573822021484 44.75214004516602 56.18982696533203 41.45615005493164 C 57.63249588012695 38.04530715942383 58.36398315429688 34.42036437988281 58.36398315429688 30.6819953918457 C 58.36398315429688 26.94363021850586 57.63249588012695 23.31867218017578 56.18982696533203 19.90782928466797 C 54.79573822021484 16.61183929443359 52.79935073852539 13.65109634399414 50.25611877441406 11.10786056518555 C 47.71288299560547 8.564628601074219 44.75214004516602 6.568241119384766 41.45615005493164 5.174152374267578 C 38.04530715942383 3.731483459472656 34.42036437988281 2.999996185302734 30.6819953918457 2.999996185302734 M 30.6819953918457 -3.814697265625e-06 C 47.62718200683594 -3.814697265625e-06 61.36398315429688 13.73679351806641 61.36398315429688 30.6819953918457 C 61.36398315429688 47.62718200683594 47.62718200683594 61.36398315429688 30.6819953918457 61.36398315429688 C 13.73679351806641 61.36398315429688 -3.814697265625e-06 47.62718200683594 -3.814697265625e-06 30.6819953918457 C -3.814697265625e-06 13.73679351806641 13.73679351806641 -3.814697265625e-06 30.6819953918457 -3.814697265625e-06 Z" stroke="none" fill="#fff"/>
  </g>
  <path id="Oval_4-2" data-name="Oval 4" d="M7.785,21.21C8.2,13.1,5.229,4.96.282-.135" transform="matrix(1, 0.017, -0.017, 1, 54.194, 13.49)" fill="none" stroke="#108ee9" stroke-linecap="round" stroke-miterlimit="10" stroke-width="3"/>
</svg>
