<svg xmlns="http://www.w3.org/2000/svg" width="32.965" height="29.652" viewBox="0 0 32.965 29.652">
  <path id="路径_1196" data-name="路径 1196" d="M33.975,59.614l-3.056-.908a6.432,6.432,0,0,0-6.526-5.369,6.5,6.5,0,0,0-6.525,5.121l-4.626,1.321a.9.9,0,0,1-.413.082,1.049,1.049,0,0,1-.5-.082L4.24,57.466a1.049,1.049,0,0,0-.5-.082,1.657,1.657,0,0,0-1.653,1.652V78.528A1.61,1.61,0,0,0,3.249,80.1l9.086,2.808a1.049,1.049,0,0,0,.5.082.62.62,0,0,0,.413-.082L23.9,79.85a.9.9,0,0,1,.413-.082,1.049,1.049,0,0,1,.5.082L32.9,82.327a1.049,1.049,0,0,0,.5.082,1.657,1.657,0,0,0,1.652-1.652V61.183a1.455,1.455,0,0,0-1.072-1.569ZM12.83,61.6V81.337L3.744,78.528V59.035l8.177,2.4c.331.082.579.082.909.166h0Zm11.563-6.608a4.782,4.782,0,0,1,4.956,4.79,5.91,5.91,0,0,1-1.239,3.387c-1.074,1.487-2.561,3.717-3.717,5.452-1.156-1.652-2.643-3.965-3.717-5.452a5.91,5.91,0,0,1-1.239-3.387,4.782,4.782,0,0,1,4.956-4.79ZM33.48,80.841l-8.095-2.478H25.22V73.243a.826.826,0,1,0-1.652,0v5.121H23.4l-8.921,2.478V61.6c0-.165-.082-.248-.082-.413l3.469-.992a7.969,7.969,0,0,0,1.487,3.882c.992,1.4,2.561,3.717,3.717,5.369a1.7,1.7,0,0,0,2.809,0c1.074-1.652,2.643-3.965,3.717-5.369a7.392,7.392,0,0,0,1.487-3.717l2.478.743V80.841H33.48ZM24.394,62.422a2.478,2.478,0,1,0-2.478-2.478A2.433,2.433,0,0,0,24.394,62.422Zm0-3.3a.826.826,0,1,1-.826.826A.78.78,0,0,1,24.394,59.118Z" transform="translate(-2.092 -53.336)" fill="#d0d4dc"/>
</svg>
