<svg xmlns="http://www.w3.org/2000/svg" width="10.704" height="13.38" viewBox="0 0 10.704 13.38">
  <defs>
  </defs>
  <path id="路径_1197" data-name="路径 1197" class="cls-1" d="M184.552,122.18a.641.641,0,0,1-.576-.247c-.165-.165-1.256-1.338-2.429-2.841-1.585-2.1-2.347-3.767-2.347-4.94a5.352,5.352,0,0,1,10.7,0,5.076,5.076,0,0,1-.844,2.594,18.982,18.982,0,0,1-2.347,3.335l-1.5,1.75A.724.724,0,0,1,184.552,122.18Zm0-12.536a4.481,4.481,0,0,0-4.508,4.508c0,1.009.762,2.511,2.182,4.426a18.377,18.377,0,0,0,2.347,2.758l1.5-1.75a25.219,25.219,0,0,0,2.264-3.252,4.862,4.862,0,0,0,.762-2.264A4.526,4.526,0,0,0,184.552,109.644Zm0,7.019a2.511,2.511,0,1,1,2.511-2.511A2.577,2.577,0,0,1,184.552,116.663Zm0-4.179a1.667,1.667,0,1,0,1.667,1.667A1.674,1.674,0,0,0,184.552,112.485Z" transform="translate(-179.2 -108.8)"/>
</svg>
