<svg id="新版" xmlns="http://www.w3.org/2000/svg" width="18.142" height="16.399" viewBox="0 0 18.142 16.399">
  <g id="发布长文-付费3" transform="translate(0 0)">
    <g id="编组-3" transform="translate(0 0)">
      <g id="_" data-name="&quot;">
        <path id="形状" d="M1.129,18.312V10.5a8.486,8.486,0,0,1,.486-3.168A8.222,8.222,0,0,1,3.123,4.721,8.348,8.348,0,0,1,8.384,1.913V5.284A4.51,4.51,0,0,0,5.727,7.251a6.543,6.543,0,0,0-.715,3.193H8.384v7.868Zm10.882,0V10.5A8.444,8.444,0,0,1,12.5,7.328a8.27,8.27,0,0,1,6.771-5.415V5.284a4.51,4.51,0,0,0-2.657,1.967,6.544,6.544,0,0,0-.715,3.193h3.372v7.868Z" transform="translate(-1.125 -1.913)" fill="#777"/>
      </g>
    </g>
  </g>
</svg>
