<svg id="新版" xmlns="http://www.w3.org/2000/svg" width="18.191" height="17.866" viewBox="0 0 18.191 17.866">
  <g id="发布长文-付费3" transform="translate(0 0)">
    <g id="编组-3">
      <g id="B">
        <path id="路径_1000" data-name="路径 1000" d="M12.893,18.991c3.691-.135,6.423-1.669,6.423-4.873s-1.736-4.566-5.205-4.734c2.747-.107,4.32-1.286,4.32-3.9,0-2.86-2.621-4.3-7.2-4.365H1.125v.914Q4,1.937,3.783,3.663V16.352Q4,18.281,1.125,18.078v.914ZM10.676,8.569l-.33,0H6.811V3.853c0-.8,1.394-1.234,3.313-1.234,3.4-.068,5.057.57,4.983,3.074.074,2.369-1.514,2.941-4.762,2.874Zm.4,8.933c-2.11,0-4.264-.556-4.264-1.469V10.058h5.307q3.876.1,3.987,4.06C16.179,16.826,14.914,17.57,11.075,17.5Z" transform="translate(-1.125 -1.125)" fill="#777"/>
      </g>
    </g>
  </g>
</svg>
