<svg id="新版" xmlns="http://www.w3.org/2000/svg" width="18.191" height="16.569" viewBox="0 0 18.191 16.569">
  <g id="发布长文-付费3" transform="translate(0 0)">
    <g id="编组-3" transform="translate(0 0)">
      <g id="H">
        <path id="路径_1001" data-name="路径 1001" d="M8.776,18.426v-.847c-1.922,0-2.619-.533-2.619-1.6V10.141h8.075v5.837c0,1.067-.651,1.6-2.465,1.6v.847h7.549v-.847c-1.917,0-2.413-.533-2.413-1.6V4.21c0-.955.618-1.506,2.413-1.506V1.856H11.767V2.7c1.778,0,2.465.555,2.465,1.506V9.294H6.157V4.21c0-.971.661-1.506,2.619-1.506V1.856H1.125V2.7c1.769,0,2.362.533,2.362,1.506V15.978c0,1.067-.634,1.6-2.362,1.6v.847Z" transform="translate(-1.125 -1.856)" fill="#777"/>
      </g>
    </g>
  </g>
</svg>
