<svg id="新版" xmlns="http://www.w3.org/2000/svg" width="18.188" height="18.686" viewBox="0 0 18.188 18.686">
  <g id="发布长文-付费3" transform="translate(0 0)">
    <g id="编组-3">
      <g id="编组1">
        <path id="形状" d="M2.875,4.671h-1.1V2.377a.345.345,0,0,0-.1-.28.635.635,0,0,0-.384-.083H1.125V1.587a1.96,1.96,0,0,0,.639-.219A2.086,2.086,0,0,0,2.223,1h.652V4.671Zm.543,4.774a1.408,1.408,0,0,1-.149.6,4.717,4.717,0,0,1-.426.676q-.3.42-.614.838H3.321v.618h-2.2v-.513q.465-.686.633-.943.2-.3.459-.717a3.1,3.1,0,0,0,.213-.411.731.731,0,0,0,.045-.254q0-.278-.226-.278a.172.172,0,0,0-.174.1.761.761,0,0,0-.045.293V9.8h-.9v-.12q0-.1,0-.2a1.366,1.366,0,0,1,.023-.2A.83.83,0,0,1,1.493,8.7a1.25,1.25,0,0,1,.73-.194,1.958,1.958,0,0,1,.413.039,1.167,1.167,0,0,1,.336.128.856.856,0,0,1,.446.77ZM3.374,18.56a2.194,2.194,0,0,1-.049.519.707.707,0,0,1-.2.339,1.119,1.119,0,0,1-.815.267,1.608,1.608,0,0,1-.871-.193.639.639,0,0,1-.3-.573l-.019-.427V18.37h.951v.555q0,.216.161.216a.138.138,0,0,0,.151-.1,1.747,1.747,0,0,0,.028-.386v-.247q0-.308-.13-.391a.978.978,0,0,0-.439-.062v-.514H1.9a.961.961,0,0,0,.429-.057q.083-.056.083-.324v-.2a.7.7,0,0,0-.019-.206.144.144,0,0,0-.148-.093q-.173,0-.173.211v.3H1.125v-.2a.8.8,0,0,1,.244-.676,1.469,1.469,0,0,1,.849-.182,1.322,1.322,0,0,1,.843.224.865.865,0,0,1,.275.712.748.748,0,0,1-.117.458.764.764,0,0,1-.278.206A.54.54,0,0,1,3.3,17.9a2.019,2.019,0,0,1,.074.661ZM5.809,2.53h13.5V4.824H5.809Zm0,6.743h13.5v2.294H5.809V9.272ZM5.6,16.015H19.1v2.294H5.6V16.015Z" transform="translate(-1.125 -1)" fill="#555"/>
      </g>
    </g>
  </g>
</svg>
