<svg xmlns="http://www.w3.org/2000/svg" width="18.098" height="18.101" viewBox="0 0 18.098 18.101">
  <g id="发布长文-付费3" transform="translate(0 0)">
    <g id="编组-3" transform="translate(0 0)">
      <g id="llianjie">
        <path id="形状" d="M17.9,2.373a4.289,4.289,0,0,0-6.05,0L8,6.23a4.292,4.292,0,0,0,0,6.05l.071.071a4.832,4.832,0,0,0,.438.38l1.477-1.54a3.545,3.545,0,0,1-.528-.5l-.071-.07c-.9-.906-.3-2.11.6-3.016l3.331-3.492A2.057,2.057,0,0,1,16.357,3.9l.072.071a1.948,1.948,0,0,1,0,2.953l-1.753,1.7a7.34,7.34,0,0,1,.6,2.565l2.7-2.7a4.289,4.289,0,0,0,0-6.05ZM11.839,7.622l-1.5,1.537A1.726,1.726,0,0,1,10.7,9.5l.072.072a2.175,2.175,0,0,1,.12,2.938L6.985,16.4a2.012,2.012,0,0,1-2.872.072L4.041,16.4a2.265,2.265,0,0,1,.072-3.175l1.452-1.369a7.908,7.908,0,0,1-.5-2.7l-2.7,2.7a4.292,4.292,0,0,0,0,6.05l.072.074a4.292,4.292,0,0,0,6.05,0l3.855-3.856a4.294,4.294,0,0,0,0-6.05L12.279,8A4.125,4.125,0,0,0,11.839,7.622Z" transform="translate(-1.125 -1.125)" fill="#777"/>
      </g>
    </g>
  </g>
</svg>
