<svg xmlns="http://www.w3.org/2000/svg" width="17.516" height="17.517" viewBox="0 0 17.516 17.517">
  <g id="组_2440" data-name="组 2440" transform="translate(-65.29 -65.286)">
    <path id="路径_1236" data-name="路径 1236" d="M501.271,262.317a.7.7,0,0,1-.549-1.135l2.8-3.548a.7.7,0,0,1,1.1.869l-2.8,3.548A.7.7,0,0,1,501.271,262.317Z" transform="translate(-426.747 -188.316)" />
    <path id="路径_1237" data-name="路径 1237" d="M483.4,464.951a.7.7,0,0,1-.7-.7v-5.167a.7.7,0,0,1,1.4,0v5.168A.7.7,0,0,1,483.4,464.951Z" transform="translate(-409.228 -385.389)" />
    <path id="路径_1238" data-name="路径 1238" d="M321.164,461.475h-6.621a.7.7,0,1,1,0-1.4h6.621a.7.7,0,1,1,0,1.4Zm0,2.74h-6.621a.7.7,0,1,1,0-1.4h6.621a.7.7,0,1,1,0,1.4Z" transform="translate(-243.679 -387.048)" />
    <path id="路径_1239" data-name="路径 1239" d="M288.65,270.776l2.452,3.153h2.1l-2.452-3.153Z" transform="translate(-218.98 -201.461)"/>
    <path id="路径_1240" data-name="路径 1240" d="M81.405,82.8H66.692a1.4,1.4,0,0,1-1.4-1.4V66.688a1.4,1.4,0,0,1,1.4-1.4H81.405a1.4,1.4,0,0,1,1.4,1.4V81.4A1.4,1.4,0,0,1,81.405,82.8ZM66.692,66.688V81.4H81.406V66.688H66.692Z"/>
  </g>
</svg>
