<svg xmlns="http://www.w3.org/2000/svg" width="13.946" height="13.946" viewBox="0 0 13.946 13.946">
  <path id="路径_1052" data-name="路径 1052" d="M14.371,4.386A6.993,6.993,0,1,0,14.919,7.1,6.971,6.971,0,0,0,14.371,4.386ZM7.946,13.119A6.019,6.019,0,1,1,13.966,7.1,6.026,6.026,0,0,1,7.946,13.119ZM9.894,7.259a.5.5,0,1,0,0-.992H8.836l1.471-2.208a.5.5,0,1,0-.827-.551L7.908,5.868,6.335,3.508a.5.5,0,1,0-.826.551L6.981,6.267H5.921a.5.5,0,0,0,0,.992h1.49v.993H5.921a.5.5,0,0,0,0,.993h1.49v1.49a.5.5,0,0,0,.993,0V9.246h1.49a.5.5,0,0,0,0-.993H8.4V7.259h1.49Z" transform="translate(-0.973 -0.127)" fill="#f9fafc"/>
</svg>
