<svg xmlns="http://www.w3.org/2000/svg" width="50" height="50" viewBox="0 0 50 50">
  <g id="组_2574" data-name="组 2574" transform="translate(-644 -565)">
    <circle id="椭圆_3" data-name="椭圆 3" cx="25" cy="25" r="25" transform="translate(644 565)" fill="#c9ced7" opacity="0.13"/>
    <g id="组_2572" data-name="组 2572" transform="translate(660.015 578.509)">
      <path id="路径_2583" data-name="路径 2583" d="M175.836,24.883H163.768a2.5,2.5,0,0,1-2.488-2.488V2.488A2.5,2.5,0,0,1,163.768,0h12.006a2.5,2.5,0,0,1,2.488,2.488V22.395A2.4,2.4,0,0,1,175.836,24.883ZM163.768,1.244a1.248,1.248,0,0,0-1.244,1.244V22.395a1.248,1.248,0,0,0,1.244,1.244h12.006a1.248,1.248,0,0,0,1.244-1.244V2.488a1.248,1.248,0,0,0-1.244-1.244Z" transform="translate(-161.28)" fill="#8590a6"/>
      <path id="路径_2584" data-name="路径 2584" d="M196.771,111.324h-3.919a.622.622,0,0,1,0-1.244h3.919a.588.588,0,0,1,.622.622A.623.623,0,0,1,196.771,111.324Zm-9.891,14.619h15.738v1.244H186.88Z" transform="translate(-186.258 -107.405)" fill="#8590a6"/>
      <path id="路径_2585" data-name="路径 2585" d="M469.538,845.858m-1.058,0a1.058,1.058,0,1,0,1.058-1.057A1.058,1.058,0,0,0,468.48,845.858Z" transform="translate(-461.015 -824.272)" fill="#8590a6"/>
    </g>
  </g>
</svg>
