<svg xmlns="http://www.w3.org/2000/svg" width="19.816" height="19.816" viewBox="0 0 19.816 19.816">
  <path id="路径_1180" data-name="路径 1180" d="M120.154,104.877a2.477,2.477,0,1,0,2.477,2.477,2.484,2.484,0,0,0-2.477-2.477Zm0,3.716a1.239,1.239,0,1,1,1.239-1.239A1.242,1.242,0,0,1,120.154,108.593Zm12.385-6.193H117.677a2.484,2.484,0,0,0-2.477,2.477v14.862a2.484,2.484,0,0,0,2.477,2.477h14.862a2.484,2.484,0,0,0,2.477-2.477V104.877A2.484,2.484,0,0,0,132.539,102.4Zm-14.862,18.578a1.242,1.242,0,0,1-1.238-1.238v-.557l4.892-4.4,6.254,6.193Zm16.1-1.238a1.242,1.242,0,0,1-1.239,1.238h-3.22l-4.521-4.644,5.264-5.264,3.716,3.716Zm0-6.75-3.716-3.777-6.131,6.254-2.539-2.539-4.954,4.521V104.877a1.242,1.242,0,0,1,1.238-1.238h14.862a1.242,1.242,0,0,1,1.239,1.238Z" transform="translate(-115.2 -102.4)" fill="#777"/>
</svg>
