<svg xmlns="http://www.w3.org/2000/svg" width="17.198" height="17.198" viewBox="0 0 17.198 17.198">
  <g id="组_1774" data-name="组 1774" transform="translate(-184.32 -184.32)">
    <path id="路径_594" data-name="路径 594" d="M192.919,184.32a8.608,8.608,0,0,0-8.6,8.6v8.6h8.6a8.6,8.6,0,0,0,0-17.2Zm0,15.854h-7.255v-7.255a7.255,7.255,0,1,1,7.255,7.255Z"/>
    <path id="路径_595" data-name="路径 595" d="M346.573,472.115m-1.075,0a1.075,1.075,0,1,0,1.075-1.075A1.075,1.075,0,0,0,345.5,472.115Z" transform="translate(-156.948 -279.196)"/>
    <path id="路径_596" data-name="路径 596" d="M472.115,472.115m-1.075,0a1.075,1.075,0,1,0,1.075-1.075A1.075,1.075,0,0,0,471.04,472.115Z" transform="translate(-279.196 -279.196)"/>
    <path id="路径_597" data-name="路径 597" d="M597.657,472.115m-1.075,0a1.075,1.075,0,1,0,1.075-1.075A1.075,1.075,0,0,0,596.582,472.115Z" transform="translate(-401.444 -279.196)"/>
  </g>
</svg>
