<svg xmlns="http://www.w3.org/2000/svg" width="17.118" height="17.117" viewBox="0 0 17.118 17.117">
  <path id="路径_1231" data-name="路径 1231" d="M14.1,9.753a.462.462,0,0,1,.3.159.323.323,0,0,1-.059.415.426.426,0,0,1-.243.087v.176a.138.138,0,0,1-.139.138H12.9a.135.135,0,0,1-.135-.134V9.488a.053.053,0,0,1,.054-.053h1.228a.049.049,0,0,1,.048.049v.269Zm.031.6v0Zm.737,6.766H2.25A2.256,2.256,0,0,1,0,14.867V2.445A2.445,2.445,0,0,1,2.446,0H14.868a2.255,2.255,0,0,1,2.25,2.25V14.867a2.254,2.254,0,0,1-2.251,2.25h0ZM7.281,6.452l-.31.107.208.391.128.029.051.45L6.925,7.5l.188.643.219-.189.073.6-.4.116.622.455.157-1.238L7.9,7.73l.1.315.251.027L8.283,9.1l.293-.181.208-.905.337.024L9.3,9.1l.278-.186.117-.841.51-.06-.137-.4-.428-.09.119-.5h.333L9.96,6.617l-.522,0,.522-.415-.53-.423-.321.8-.362.084.172-.543L8.176,5.8l.279.813-.384.08V6.468L7.82,6.435l-.234-.652-.306.669Zm.657.35.118.249.253.073.084.4-.377.137.114-.257-.375.025.061-.464L7.938,6.8Zm.943.318L9.2,7.046l.044.459-.432.086.07-.472h0ZM4.791,2.489l-3.253,2.3L4.791,7.171V2.489Zm.257,0V7.171L8.4,4.854,5.049,2.491h0ZM1.537,5.118V9.769l3.2-2.323-3.2-2.325v0ZM4.791,7.682,1.537,9.962l3.253,2.379V7.682Zm.257,0V12.34l3.194-2.329L5.049,7.682h0Zm.112,4.86,3.3,2.375L8.441,10.23,5.16,12.545v0Zm3.509-2.313v4.688l3.288-2.379L8.67,10.23h0Zm.2-.2,3.222,2.312-.017-4.674-3.2,2.362h0ZM12.3,7.666V12.34l3.288-2.354L12.3,7.666h0Zm.079-.24,3.21,2.34V5.1l-3.21,2.322h0ZM12.3,2.489V7.171L15.591,4.8,12.3,2.489h0Zm-.211,0L8.686,4.864l3.405,2.309V2.489ZM9.364,11.914a.445.445,0,0,1,.342-.242v-.056a.046.046,0,0,1,.047-.046h.073a.046.046,0,0,1,.046.046v.067c.289.049.325.231.325.231h.029c.072,0,.085.037.081.071a.056.056,0,0,1-.054.051h-.93a.057.057,0,0,1-.054-.061.058.058,0,0,1,.054-.061h.042Zm-2.893-7.9a1.616,1.616,0,0,1,.595.235c.034.017.024.1,0,.123L6.9,4.58l-.09-.091V5.4a.1.1,0,0,1-.1.1H5.736a.093.093,0,0,1-.093-.093V4.487l-.09.092-.174-.257a.046.046,0,0,1,.011-.071,1.717,1.717,0,0,1,.592-.245.248.248,0,0,0,.49,0v0ZM3.338,5.462a.177.177,0,0,1-.2.013.183.183,0,0,1-.083-.2l.309-.56a.193.193,0,0,0,.055-.108c.007-.054-.018-.074-.041-.164a.452.452,0,0,1-.017-.2.358.358,0,0,1,.046-.126c-.032-.082-.022-.151.01-.169a.077.077,0,0,1,.051,0,.131.131,0,0,1,.067.135.191.191,0,0,1,.074.015.251.251,0,0,1,.106.08.22.22,0,0,1,.171-.1.135.135,0,0,1,.074-.137.076.076,0,0,1,.051,0c.031.021.034.088,0,.164a.746.746,0,0,1,.064.1c.017.049,0,.086-.017.171-.015.054-.034.135-.055.235q.14.251.288.5c.048.07.066.083.076.126a.213.213,0,0,1-.083.237.207.207,0,0,1-.188-.025.269.269,0,0,1-.175.1.272.272,0,0,1-.209-.061.239.239,0,0,1-.176.074.249.249,0,0,1-.192-.118ZM2.4,6.953a.347.347,0,0,1,.694,0,.375.375,0,0,1,.212.091.5.5,0,0,1,.121.281,3.285,3.285,0,0,1,.061.531.279.279,0,0,1-.239.213h-1A.3.3,0,0,1,2,7.826a1.59,1.59,0,0,1,.1-.655.424.424,0,0,1,.118-.143A.413.413,0,0,1,2.4,6.954h0Zm1.844,3.686,0-.736a.228.228,0,0,0-.043-.055c-.035-.016-.1.047-.1.055-.108.112-.114.227-.171.468s-.171.269-.5.269a.649.649,0,0,1-.506-.168c-.034-.066.115-.14.3-.208a2.491,2.491,0,0,1,.443-.11,2.425,2.425,0,0,0,.234-.492,1.593,1.593,0,0,1,.352-.493.461.461,0,0,1,.275.347c.018.1-.138.388-.167.555-.013.077,0,.568,0,.568H4.242ZM5.5,10.581a.115.115,0,0,1-.089-.088V9.529a.111.111,0,0,1,.088-.1c.1-.005.2-.01.3-.013.012-.037.055-.06.1-.147.012-.025.043-.033.061-.043H6.5a.166.166,0,0,1,.084.05c.063.088.089.1.1.137H6.91a.167.167,0,0,1,.1.038.191.191,0,0,1,.042.059v.975a.121.121,0,0,1-.092.1H5.5Zm1.827.954.091.122H7.237l.088-.122Zm-.912.978a.959.959,0,0,1,.372-.636.932.932,0,0,1,.868-.119,1.053,1.053,0,0,1,.3.188.679.679,0,0,1,.181.217c.108.227.074.346.108.346a.445.445,0,0,0-.455,0,.423.423,0,0,0-.368-.049v.709a.312.312,0,0,1-.389.2.326.326,0,0,1-.22-.288.155.155,0,0,1,.015-.061c.005-.007.037-.066.088-.065s.077.052.088.084,0,.055.012.083a.122.122,0,0,0,.154.041.264.264,0,0,0,.05-.062l.021-.648a.448.448,0,0,0-.367.054.456.456,0,0,0-.23-.064.477.477,0,0,0-.228.065h0Zm2.824-.274a.086.086,0,0,1,.086-.086h.9a.089.089,0,0,1,.089.089v.852a.118.118,0,0,1-.118.118H9.376a.139.139,0,0,1-.139-.14v-.834Zm1.455-2.828.07-.261a.075.075,0,0,1,.073-.057H11.2a.086.086,0,0,1,.083.063l.071.255a.591.591,0,0,0-.656,0Zm.656,1.116-.068.262a.076.076,0,0,1-.074.056h-.359a.086.086,0,0,1-.084-.063l-.071-.254a.59.59,0,0,0,.656,0Zm-.856-.566a.525.525,0,1,1,.524.5.525.525,0,0,1-.524-.5Zm2.5-.663h-.054a.04.04,0,0,1-.039-.039v-.2a.039.039,0,0,1,.039-.04h.054a.039.039,0,0,1,.04.039v.2A.04.04,0,0,1,12.989,9.3Zm.464,0H13.4a.043.043,0,0,1-.043-.043V9.018a.044.044,0,0,1,.043-.043h.059a.044.044,0,0,1,.043.043v.237a.043.043,0,0,1-.043.043h0Zm.47,0h-.061a.044.044,0,0,1-.045-.044V9.066a.044.044,0,0,1,.046-.044h.061a.044.044,0,0,1,.044.044v.187a.046.046,0,0,1-.046.046ZM13.456,7.37A.821.821,0,0,1,13.68,7.1a.852.852,0,0,1,.451-.163,2.154,2.154,0,0,1,.184-.171c.068-.051.177-.093.205-.055a.948.948,0,0,1,0,.288,1.1,1.1,0,0,0,.143.07c.118.052.239.214.3.214s.155-.154.242-.2a.13.13,0,0,1,.184.125.537.537,0,0,1-.1.232,1.152,1.152,0,0,1,.091.194c.034.1-.037.16-.134.143s-.22-.188-.272-.205-.1.042-.188.129a.85.85,0,0,1-.254.151v.235c0,.059-.021.1-.092.08a1.656,1.656,0,0,1-.31-.235.535.535,0,0,1-.346-.1,1.12,1.12,0,0,1-.324-.327.132.132,0,0,1,0-.131Zm-.728-2.486a.713.713,0,1,1,.713.693A.713.713,0,0,1,12.727,4.884ZM12.9,3.778a.623.623,0,0,1,.31.013c.171.071.187.31.187.31a.3.3,0,0,1-.325-.034.4.4,0,0,1-.171-.289h0Zm.933.086a.306.306,0,0,1-.128.22.232.232,0,0,1-.247.025s.013-.181.142-.235a.462.462,0,0,1,.234-.01ZM10.667,5.506a.01.01,0,0,1,0-.018l.307-.138V5.1s-.047-.038-.142-.126a1.077,1.077,0,0,1-.347-.455,2.177,2.177,0,0,1,.034-.566h1a2.673,2.673,0,0,1,.067.466.732.732,0,0,1-.262.471c-.1.077-.252.2-.252.2v.248a.521.521,0,0,0,.15.071A1.222,1.222,0,0,1,11.4,5.5c.005,0,0,.011,0,.011h-.733ZM2.522,6.948h.459s-.046-.2-.23-.2-.229.2-.229.2h0ZM14.1,10.291c.165-.062.232-.148.2-.258q-.029-.108-.2-.157v.415Z" fill="#f40009"/>
</svg>
