<svg xmlns="http://www.w3.org/2000/svg" width="17.436" height="19.695" viewBox="0 0 17.436 19.695">
  <g id="组_2463" data-name="组 2463" transform="translate(-143.772 -96)">
    <path id="路径_1232" data-name="路径 1232" d="M161.2,112.877l-.758-10.772a2.674,2.674,0,0,0-2.682-2.515h-1.167a4.159,4.159,0,0,0-8.242.015h-1.136a2.672,2.672,0,0,0-2.682,2.5l-.757,10.772a2.6,2.6,0,0,0,.7,1.954,2.754,2.754,0,0,0,1.985.864h12.059a2.728,2.728,0,0,0,1.985-.864,2.546,2.546,0,0,0,.7-1.954Zm-8.726-15.65a2.942,2.942,0,0,1,2.878,2.379h-5.757A2.954,2.954,0,0,1,152.473,97.227Zm6.045,17.089H146.459a1.29,1.29,0,0,1-1.3-1.333l.757-10.772a1.3,1.3,0,0,1,1.3-1.227h10.559a1.319,1.319,0,0,1,1.3,1.227l.757,10.772A1.312,1.312,0,0,1,158.518,114.316Z" transform="translate(0)"/>
    <path id="路径_1233" data-name="路径 1233" d="M340.151,456.6A4.157,4.157,0,0,1,336,452.446a.606.606,0,1,1,1.212,0,2.939,2.939,0,0,0,5.878,0,.606.606,0,1,1,1.212,0A4.138,4.138,0,0,1,340.151,456.6Z" transform="translate(-187.678 -347.417)"/>
  </g>
</svg>
