<svg id="组_2322" data-name="组 2322" xmlns="http://www.w3.org/2000/svg" width="17.034" height="17.034" viewBox="0 0 17.034 17.034">
  <path id="路径_1208" data-name="路径 1208" d="M288.981,227.485H285.8v.434h3.181Zm4.488-9.738c-.071-.006-.144-.014-.215-.018s-.16-.016-.24-.028c.079.012.16.02.24.028S293.4,217.743,293.47,217.747Z" transform="translate(-281.431 -214.974)" fill="#e12319"/>
  <path id="路径_1209" data-name="路径 1209" d="M84.742,83.4H73.493A2.893,2.893,0,0,0,70.6,86.293V97.541a2.893,2.893,0,0,0,2.893,2.893H84.742a2.893,2.893,0,0,0,2.893-2.893V86.293A2.893,2.893,0,0,0,84.742,83.4ZM73.8,88.27c.037-.1.067-.195.112-.288a1.65,1.65,0,0,1,.211-.329,3.088,3.088,0,0,0,.469-.842c.069-.171.144-.339.213-.512a.317.317,0,0,1,.426-.179.659.659,0,0,1,.229.13,4.676,4.676,0,0,0,.42.29c.024.016.043.024.069,0a2.832,2.832,0,0,1,.972-.65,9.161,9.161,0,0,1,2.227-.65,8.9,8.9,0,0,1,1.888-.093l.037,0c.037-.035.069-.02.1,0a.15.15,0,0,0,.073.006.027.027,0,0,1,.045,0l.266.026a.026.026,0,0,1,.043,0l.089.01c.012-.012.02-.01.028,0a.1.1,0,0,0,.059.008c.024-.02.045-.014.063.01.148.032.3.061.447.1a2.787,2.787,0,0,1,1.125.5.824.824,0,0,1,.315.83,3.906,3.906,0,0,1-.467,1.3c-.028.051-.079.077-.114.12.016.079-.061.118-.079.183s-.065.089-.1.132c0,.008,0,.018-.016.012,0,.01,0,.026-.014.014.012.032-.02.047-.035.065a3.941,3.941,0,0,1-.755.727,4.342,4.342,0,0,1-1.959.836,1.915,1.915,0,0,1-.538-.02c-.132-.014-.264-.03-.4-.057-.024,0-.053-.024-.077,0l-.01.006c-.014-.093-.1-.055-.144-.065a4.577,4.577,0,0,1-1.157-.477,6.272,6.272,0,0,1-1.338-.932,3.055,3.055,0,0,1-.741-1.015,1.057,1.057,0,0,1-.075-.248.121.121,0,0,0-.1-.116,2.333,2.333,0,0,1,.008.412,1.2,1.2,0,0,1-.834,1.129,2.2,2.2,0,0,1-.534.162.439.439,0,0,1-.459-.55Zm1.382,9.61a6.25,6.25,0,0,1-.457.633.423.423,0,0,1-.516.15,2.877,2.877,0,0,0,.207-.376c.14-.371.274-.747.392-1.127.039-.122.071-.187.209-.179.166.01.333,0,.575,0C75.438,97.32,75.33,97.612,75.178,97.88Zm1.709-.162a.893.893,0,0,1-1.084.96V98.4c.406-.144.426-.175.426-.621V96.731h-1.89V95.56h4.436v1.157H76.887v.727C76.887,97.533,76.889,97.626,76.887,97.718Zm1.537.824A3.611,3.611,0,0,1,77.573,97h.637c.221.572.434,1.127.65,1.683A.407.407,0,0,1,78.424,98.542Zm.512-3.3H74.179v-.335h2.042c.01-.1.016-.173.026-.264h.625c.012.083.024.164.041.268h1.525l.231,0C78.97,94.9,78.972,94.906,78.936,95.241Zm.542-3.5a4.568,4.568,0,0,0-.2.611c-.014.047-.03.071-.083.069s-.14.037-.179,0,0-.116,0-.175a5.113,5.113,0,0,0,.014-.706.562.562,0,0,0-.195.12c-.221.185-.4.406-.611.6a1.152,1.152,0,0,0-.1.1.217.217,0,0,1-.171.069c-.059.006-.071-.012-.041-.067.112-.187.219-.376.329-.562.059-.1.116-.207.181-.307.032-.051.01-.061-.03-.071a.546.546,0,0,1-.2-.1.467.467,0,0,1-.148-.51.615.615,0,0,0,.1.209.367.367,0,0,0,.51.073.136.136,0,0,0,.041-.053q.274-.457.544-.916a.088.088,0,0,1,.112-.049,2.419,2.419,0,0,0,.735.051.891.891,0,0,0,.349-.108v.122c-.006.735-.012,1.472-.014,2.207,0,.069-.02.081-.083.075-.154-.014-.152-.012-.191-.164a5.04,5.04,0,0,0-.13-.516.7.7,0,0,0-.14-.242c-.087-.087-.152-.087-.242,0A.787.787,0,0,0,79.478,91.739Zm.637,6.882c-.081.071-.235.059-.376.089.166-.378.319-.711.459-1.047a1.121,1.121,0,0,0,.11-.4c0-.258.138-.3.355-.282.126.012.256,0,.414,0A3.353,3.353,0,0,1,80.115,98.621Zm3.812-.1a3.609,3.609,0,0,1-.83-1.5c.043-.018.049-.022.057-.022.6-.061.6-.059.763.514a4.612,4.612,0,0,0,.225.6c.083.187.191.363.29.552a.458.458,0,0,1-.505-.144Zm.536-3.276c-.071,0-.152.012-.233.012-.932,0-1.866.006-2.8,0a.308.308,0,0,0-.347.219c-.112.284-.252.558-.4.885.363,0,.688.006,1.015-.008.037,0,.1-.1.1-.162.012-.2,0-.4,0-.611h.644v.777h1.841v.361H82.45c0,.353,0,.674,0,.995a.892.892,0,0,1-1.07.97c-.051-.177-.067-.311.179-.369a.352.352,0,0,0,.215-.256c.022-.434.01-.873.01-1.338H79.853c.227-.5.438-.952.67-1.458H79.7v-.355c.276,0,.552,0,.828,0,.065,0,.171-.016.185-.053.156-.394.477-.173.757-.242-.037.112-.061.181-.1.284h3.09C84.463,95.026,84.463,95.121,84.463,95.247Z" transform="translate(-70.6 -83.4)" fill="#e12319"/>
  <path id="路径_1210" data-name="路径 1210" d="M235.986,171.738c.016.037-.018.049-.032.069a3.942,3.942,0,0,1-.755.727,4.342,4.342,0,0,1-1.959.836,1.914,1.914,0,0,1-.538-.02c-.132-.014-.264-.03-.4-.057-.024,0-.053-.024-.077,0l-.01.006c-.014-.093-.1-.055-.144-.065a4.578,4.578,0,0,1-1.157-.477,6.271,6.271,0,0,1-1.338-.932,3.055,3.055,0,0,1-.741-1.015,1.056,1.056,0,0,1-.075-.248.121.121,0,0,0-.1-.116,2.334,2.334,0,0,1,.008.412,1.2,1.2,0,0,1-.834,1.129,2.2,2.2,0,0,1-.534.162.439.439,0,0,1-.457-.55c.037-.1.067-.195.112-.288a1.649,1.649,0,0,1,.211-.329,3.088,3.088,0,0,0,.469-.842c.069-.171.144-.339.213-.512a.317.317,0,0,1,.426-.179.659.659,0,0,1,.229.13,4.668,4.668,0,0,0,.42.29c.024.016.043.024.069,0a2.832,2.832,0,0,1,.972-.65,9.162,9.162,0,0,1,2.227-.65,8.9,8.9,0,0,1,1.888-.093l.037,0,.1,0a.15.15,0,0,0,.073.006l.045,0,.266.026.043,0,.089.01.028,0a.1.1,0,0,0,.059.008l.063.01c.148.032.3.061.447.1a2.786,2.786,0,0,1,1.125.5.824.824,0,0,1,.315.83,3.905,3.905,0,0,1-.467,1.3c-.028.051-.079.077-.114.12a.664.664,0,0,0-.089.03,1.867,1.867,0,0,1-.485.15,3.83,3.83,0,0,1-1.884-.146,2.87,2.87,0,0,1-1.4-1.043.115.115,0,0,0-.148-.041.153.153,0,0,0-.026.175,3.367,3.367,0,0,0,.384.449,3.242,3.242,0,0,0,1.752.853,4.017,4.017,0,0,0,1.267.014A3,3,0,0,0,235.986,171.738Zm-.508-2.247a2.685,2.685,0,0,0,.384.018.883.883,0,0,0,.461-.14.164.164,0,0,0,.032-.252.332.332,0,0,0-.1-.081,1.227,1.227,0,0,0-.447-.158,2.089,2.089,0,0,0-.491-.012.977.977,0,0,0-.374.1.268.268,0,0,0-.166.219c0,.108.1.158.185.2A1.471,1.471,0,0,0,235.479,169.491Zm-3.287-.008a.28.28,0,0,0,.246.288.319.319,0,0,0,.311-.225.289.289,0,0,0-.25-.284A.264.264,0,0,0,232.192,169.483Z" transform="translate(-223.655 -166.736)" fill="#eee"/>
  <path id="路径_1211" data-name="路径 1211" d="M430.445,410.492a.615.615,0,0,0,.1.209.367.367,0,0,0,.51.073.137.137,0,0,0,.041-.053q.274-.457.544-.916a.088.088,0,0,1,.112-.049,2.419,2.419,0,0,0,.735.051.891.891,0,0,0,.349-.108v.122c-.006.735-.012,1.472-.014,2.207,0,.069-.02.081-.083.075-.154-.014-.152-.012-.191-.164a5.045,5.045,0,0,0-.13-.516.7.7,0,0,0-.14-.242c-.087-.087-.152-.087-.242,0a.775.775,0,0,0-.146.229,4.568,4.568,0,0,0-.2.611c-.014.047-.03.071-.083.069s-.14.037-.179,0,0-.116,0-.175a5.117,5.117,0,0,0,.014-.706.561.561,0,0,0-.195.12c-.221.185-.4.406-.611.6a1.159,1.159,0,0,0-.1.1.216.216,0,0,1-.17.069c-.059.006-.071-.012-.041-.067.112-.187.219-.376.329-.562.059-.1.116-.207.181-.307.032-.051.01-.061-.03-.071a.546.546,0,0,1-.2-.1A.454.454,0,0,1,430.445,410.492Z" transform="translate(-423.003 -403.076)" fill="#eee"/>
  <path id="路径_1212" data-name="路径 1212" d="M492.718,171.566a2.947,2.947,0,0,1-.42.1,4.016,4.016,0,0,1-1.267-.014,3.249,3.249,0,0,1-1.752-.853,3.11,3.11,0,0,1-.384-.449.153.153,0,0,1,.026-.175.115.115,0,0,1,.148.041,2.87,2.87,0,0,0,1.4,1.043,3.852,3.852,0,0,0,1.884.146,1.843,1.843,0,0,0,.485-.15c.028-.012.059-.02.089-.03.016.079-.061.118-.079.183s-.065.089-.1.132c-.01,0-.016,0-.016.012l0,0C492.724,171.554,492.714,171.554,492.718,171.566Zm-1.76-3.254-.1,0C490.891,168.273,490.925,168.287,490.958,168.312Zm.668.069-.063-.01A.041.041,0,0,1,491.626,168.381Zm-.55-.061-.045,0A.028.028,0,0,1,491.075,168.32Zm.311.03-.043,0C491.358,168.332,491.372,168.334,491.386,168.35Zm.118.014-.028,0C491.486,168.348,491.5,168.35,491.5,168.365Z" transform="translate(-480.387 -166.564)" fill="#282526"/>
  <path id="路径_1213" data-name="路径 1213" d="M678.7,328.712c0-.01.008-.012.016-.012S678.714,328.718,678.7,328.712Z" transform="translate(-666.355 -323.72)" fill="#eee"/>
  <path id="路径_1214" data-name="路径 1214" d="M677.887,329.214c0-.014.008-.014.018-.014S677.912,329.232,677.887,329.214Z" transform="translate(-665.559 -324.21)" fill="#eee"/>
  <path id="路径_1215" data-name="路径 1215" d="M619.4,188.563a1.578,1.578,0,0,1-.512-.108c-.089-.043-.185-.093-.185-.2a.265.265,0,0,1,.167-.219.977.977,0,0,1,.374-.1,2.09,2.09,0,0,1,.491.012,1.265,1.265,0,0,1,.447.158.334.334,0,0,1,.1.081.164.164,0,0,1-.033.252.9.9,0,0,1-.461.14A2.685,2.685,0,0,1,619.4,188.563Z" transform="translate(-607.573 -185.808)" fill="#282526"/>
  <path id="路径_1216" data-name="路径 1216" d="M491.044,207.952a.265.265,0,0,1,.309-.221.291.291,0,0,1,.25.284.324.324,0,0,1-.311.225A.279.279,0,0,1,491.044,207.952Z" transform="translate(-482.507 -205.206)" fill="#444243"/>
  <path id="路径_1217" data-name="路径 1217" d="M253.15,636.3h-.826v-.355c.276,0,.552,0,.828,0,.065,0,.171-.016.185-.053.156-.394.477-.172.757-.242-.037.112-.061.181-.1.284h3.09v.351c-.071,0-.152.012-.233.012-.932,0-1.866.006-2.8,0a.308.308,0,0,0-.347.219c-.112.284-.252.558-.4.885.363,0,.688.006,1.015-.008.037,0,.1-.1.1-.162.012-.2,0-.4,0-.611h.644v.777h1.841v.361h-1.837c0,.353,0,.674,0,.995a.892.892,0,0,1-1.07.97c-.051-.177-.067-.311.179-.369a.352.352,0,0,0,.215-.256c.022-.434.01-.873.01-1.338h-1.931C252.707,637.259,252.919,636.8,253.15,636.3Zm-4.724,3.414v-.282c.406-.144.426-.175.426-.621v-1.043h-1.89v-1.171H251.4v1.157H249.51v1A.891.891,0,0,1,248.426,639.711Zm-.834-2.332h3.181v-.434h-3.181Zm-.792-1.1v-.335h2.042c.01-.1.016-.173.026-.264h.625c.012.083.024.164.041.268h1.525l.231,0c.3,0,.3,0,.268.335C249.981,636.274,248.4,636.274,246.8,636.274Z" transform="translate(-243.223 -624.433)" fill="#fff"/>
  <path id="路径_1218" data-name="路径 1218" d="M257.092,751.869c.043-.018.049-.022.057-.022.6-.061.6-.059.763.514a4.612,4.612,0,0,0,.225.6c.083.187.191.363.29.552a.454.454,0,0,1-.505-.142A3.6,3.6,0,0,1,257.092,751.869Zm-5.524-.022h.637c.221.572.434,1.127.65,1.683a.4.4,0,0,1-.434-.134A3.621,3.621,0,0,1,251.568,751.847Zm-1.983-.01c-.15.335-.26.627-.412.9a6.24,6.24,0,0,1-.457.633.423.423,0,0,1-.516.15,2.872,2.872,0,0,0,.207-.376c.14-.371.274-.747.392-1.127.039-.122.071-.187.209-.179.166.008.333,0,.577,0Zm5.485,0a3.314,3.314,0,0,1-.962,1.636c-.081.071-.235.059-.376.089.166-.378.319-.71.459-1.047a1.121,1.121,0,0,0,.11-.4c0-.258.138-.3.355-.282C254.782,751.845,254.911,751.835,255.07,751.835Z" transform="translate(-244.595 -738.252)" fill="#fff"/>
</svg>
