<svg id="组_2323" data-name="组 2323" xmlns="http://www.w3.org/2000/svg" width="17.045" height="17.044" viewBox="0 0 17.045 17.044">
  <path id="路径_1209" data-name="路径 1209" d="M84.75,83.4H73.495A2.9,2.9,0,0,0,70.6,86.295V97.55a2.9,2.9,0,0,0,2.895,2.895H84.75a2.9,2.9,0,0,0,2.895-2.895V86.295A2.9,2.9,0,0,0,84.75,83.4Z" transform="translate(-70.6 -83.4)" fill="#ff5c00"/>
  <path id="路径_1219" data-name="路径 1219" d="M129.19,214.9a9.409,9.409,0,0,1-1.058,2.1,4.007,4.007,0,0,1-.481.573l-.191.195.56.321.556.317.123-.119c.147-.143.481-.515.645-.717l.119-.15.341-.137.348-.154h.044l-.061.109a10.641,10.641,0,0,1-1.072,1.594,1.207,1.207,0,0,0-.126.16,4.156,4.156,0,0,0,.341.3l.341.29h-.683v.805h2.239v1.921h-.147a1.048,1.048,0,0,1-.683-.232c-.133-.147-.171-.406-.119-.863,0-.133.024-.266.024-.3v-.065h-.782a5.333,5.333,0,0,0-.819.02,1.287,1.287,0,0,0-.082.577,2.576,2.576,0,0,0,.068.8,1.423,1.423,0,0,0,1.136,1.13,3.16,3.16,0,0,0,.764.031,7.958,7.958,0,0,0,.86-.027,5.669,5.669,0,0,0,2.58-.86.788.788,0,0,1,.181-.106s.058.195.116.416.109.4.113.406.3-.113.648-.259a5.552,5.552,0,0,0,.638-.287c0-.027-.853-2.113-.863-2.119s-1.024.307-1.051.321.038.164.092.341.1.358.1.369a2.448,2.448,0,0,1-.42.259,4.8,4.8,0,0,1-.478.2v-1.676h2.222v-.8h-2.218v-1H135.3v-.805h-3.969l.089-.109a2.771,2.771,0,0,0,.474-.754s-.14-.044-.3-.089l-.341-.092a7.818,7.818,0,0,1,1.365-.437,4.412,4.412,0,0,1,2.3-.113,1.188,1.188,0,0,1,.509.311.826.826,0,0,1,.212.283,1.447,1.447,0,0,1,.15.529c0,.109.017.928,0,2.71v2.556l-.044.143a1.219,1.219,0,0,1-.341.57,1.434,1.434,0,0,1-1.024.341,2.6,2.6,0,0,1-.683-.1,4.248,4.248,0,0,0-.491-.092s-.222.863-.222.9.051.041.341.1a5.352,5.352,0,0,0,1.287.123,3.413,3.413,0,0,0,1.089-.109A2.266,2.266,0,0,0,137.5,222.4c.058-.447.109-1.174.133-1.87a18.457,18.457,0,0,0-.181-3.355,1.707,1.707,0,0,0-.3-.768c-.642-.908-2.048-1.287-4.007-1.068a17.379,17.379,0,0,0-2.447.495.683.683,0,0,1-.15.034,1.751,1.751,0,0,1,.1-.2,2.692,2.692,0,0,0,.276-.584s-1.58-.454-1.611-.454a1.842,1.842,0,0,0-.116.287Zm1.986,4.177v.505h-1.543l.488-.5.491-.5h.563Zm-4.488-4.273a1.14,1.14,0,0,0-.894.788.983.983,0,0,0,0,.526,1.218,1.218,0,0,0,1.853.532.986.986,0,0,0,.457-.822.928.928,0,0,0-.294-.683,1.161,1.161,0,0,0-.607-.341A1.928,1.928,0,0,0,126.689,214.807Zm-1.089,3.051c-.195.3-.341.556-.341.567a7.929,7.929,0,0,0,.683.437c.887.553.833.515.969.652.382.382.386.816.017,1.365a16.477,16.477,0,0,1-1.887,2.048,4.243,4.243,0,0,0-.317.314s1.734,1.092,1.754,1.092.031-.031.048-.068c.061-.147.495-1.068.812-1.73.181-.379.358-.768.4-.86a8.764,8.764,0,0,0,.423-1.444,2.871,2.871,0,0,0,.017-.386,1.321,1.321,0,0,0-.034-.386,1.5,1.5,0,0,0-.218-.468,10.1,10.1,0,0,0-.935-.915c-.246-.2-.973-.747-1.01-.761a4.492,4.492,0,0,0-.375.543Z" transform="translate(-122.657 -211.014)" fill="#fff"/>
</svg>
