<svg id="组_2321" data-name="组 2321" xmlns="http://www.w3.org/2000/svg" width="17.08" height="17.086" viewBox="0 0 17.08 17.086">
  <path id="路径_1202" data-name="路径 1202" d="M144.43,817.171a5.491,5.491,0,0,1,.069-1.9,1.4,1.4,0,0,1,.373-.775,1.832,1.832,0,0,0-1.313.66,1.879,1.879,0,0,0-.249,2.1h1.158A.122.122,0,0,1,144.43,817.171Zm5.767-1.263a4.162,4.162,0,0,0-.436.012c-.155.027-.193.12-.1.249.134.188.27.373.406.559a.154.154,0,0,0,.258,0c.134-.184.266-.369.4-.553.1-.132.059-.224-.1-.253A3.416,3.416,0,0,0,150.2,815.908Zm4.623,1.221a5.428,5.428,0,0,1-.015-1.33,2.2,2.2,0,0,1,.45-1.3,1.84,1.84,0,0,0-1.341.708,1.879,1.879,0,0,0-.21,2.051h1.152C154.832,817.242,154.829,817.206,154.819,817.129Zm-9.291.13h1.15a1.879,1.879,0,0,0-.279-2.135,1.762,1.762,0,0,0-1.263-.614,1.017,1.017,0,0,1,.186.258,2.293,2.293,0,0,1,.165.484,4.638,4.638,0,0,1,.121,1.091,5.322,5.322,0,0,1-.055.855A.1.1,0,0,1,145.528,817.259Zm10.4,0h1.133a1.9,1.9,0,0,0-.287-2.156,1.766,1.766,0,0,0-1.251-.584.943.943,0,0,1,.279.465,5.112,5.112,0,0,1,.138,2.25C155.938,817.244,155.935,817.251,155.931,817.259Z" transform="translate(-141.644 -800.189)" fill="#fff"/>
  <path id="路径_1203" data-name="路径 1203" d="M84.34,655.9a3.232,3.232,0,0,0-.321-1.182.9.9,0,0,0-.536-.484.95.95,0,0,0-.777.105c-.1.057-.18.138-.272.2a1,1,0,0,0-.2.182c-.155.18-.3.369-.455.547-.279.316-.608.578-.905.874a2.914,2.914,0,0,1-.809.555,3.281,3.281,0,0,1-.8.274,3.58,3.58,0,0,1-.7.071q-2.574,0-5.151,0a3.934,3.934,0,0,1-1.167-.128,3.122,3.122,0,0,1-.58-.207,2.675,2.675,0,0,1-.421-.237c-.08-.061-.165-.122-.243-.187s-.165-.119-.237-.189c-.283-.276-.576-.541-.84-.838-.147-.166-.289-.339-.44-.5a1.9,1.9,0,0,0-.564-.457c-.092-.044-.189-.073-.277-.121h-.008l-.006,0c-.052,0-.105,0-.157,0a.708.708,0,0,0-.385.1,1.546,1.546,0,0,0-.3.214c-.021.019-.013.065-.057.061-.065.128-.128.256-.182.39a3.489,3.489,0,0,0-.189.748c-.025.151-.04.3-.061.457,0,.17,0,.339,0,.509v1.291a2.168,2.168,0,0,0,1.644,2.009,1.864,1.864,0,0,1,.27-2.053,1.825,1.825,0,0,1,1.313-.66,1.41,1.41,0,0,0-.373.775,5.49,5.49,0,0,0-.069,1.9c.01.082.036.107.121.105.3-.006.607,0,.909,0,.059,0,.084-.01.094-.077a5.583,5.583,0,0,0,.055-.855,4.66,4.66,0,0,0-.121-1.091,2.291,2.291,0,0,0-.165-.484.972.972,0,0,0-.186-.258,1.761,1.761,0,0,1,1.263.614A1.88,1.88,0,0,1,72.33,660h7.033a1.879,1.879,0,0,1,.2-2.061,1.834,1.834,0,0,1,1.341-.708,2.2,2.2,0,0,0-.45,1.3,5.425,5.425,0,0,0,.015,1.33c.017.143.015.143.157.143h.892c.031,0,.063.013.071-.042a5.112,5.112,0,0,0-.138-2.25.942.942,0,0,0-.279-.465,1.762,1.762,0,0,1,1.251.583,1.9,1.9,0,0,1,.312,2.107,2.168,2.168,0,0,0,1.632-2.1v-1.776A.383.383,0,0,1,84.34,655.9Zm-7.971,3.011c-.134.184-.266.369-.4.553a.154.154,0,0,1-.258,0c-.136-.186-.272-.371-.406-.559-.092-.128-.054-.22.1-.249a4.192,4.192,0,0,1,.436-.011,3.816,3.816,0,0,1,.419.011C76.427,658.685,76.463,658.777,76.369,658.907Z" transform="translate(-67.292 -642.925)"/>
  <path id="路径_1204" data-name="路径 1204" d="M672.95,411.157c.208,0,.417,0,.624,0,.023,0,.048,0,.071-.006v-1.024H672.6v.677A.336.336,0,0,0,672.95,411.157Zm.695-2.757H672.61v1.014h1.035Zm1.758,1.732H674.36v1.027c.239,0,.471,0,.7,0a.331.331,0,0,0,.339-.344c0-.18,0-.362,0-.542Z" transform="translate(-661.011 -401.858)" fill="#da0b06"/>
  <path id="路径_1205" data-name="路径 1205" d="M81.811,66.5H69.068A2.168,2.168,0,0,0,66.9,68.668c0,3.781,0,11.17.006,11.044.019-.153.036-.306.061-.457a3.517,3.517,0,0,1,.189-.748c.054-.134.117-.262.182-.39.044,0,.034-.042.057-.061a1.551,1.551,0,0,1,.3-.214.725.725,0,0,1,.385-.1c.052,0,.105,0,.157,0l.006,0h.008c.09.048.188.077.277.121a1.9,1.9,0,0,1,.564.457c.151.163.291.337.44.5.264.295.557.561.84.838.073.071.161.124.237.189s.161.126.243.188a2.933,2.933,0,0,0,.421.237,3.426,3.426,0,0,0,.58.207,3.934,3.934,0,0,0,1.167.128q2.574,0,5.151,0a3.731,3.731,0,0,0,.7-.071,3.363,3.363,0,0,0,.8-.274,2.913,2.913,0,0,0,.809-.555c.3-.3.628-.559.905-.874.157-.178.3-.369.455-.547a1,1,0,0,1,.2-.182c.094-.063.172-.144.272-.2a.943.943,0,0,1,.777-.105.9.9,0,0,1,.536.484,2.551,2.551,0,0,1,.245.685,2.3,2.3,0,0,1,.077.5.531.531,0,0,0,.031.18V68.668A2.16,2.16,0,0,0,81.811,66.5Zm-7.12,9.968a6.342,6.342,0,0,1-2.732-2.543,6.325,6.325,0,0,1-2.734,2.543l-.342-.608c.134-.08.264-.155.39-.233A6.561,6.561,0,0,0,70.8,74.4a3.105,3.105,0,0,0,.706-1.278.306.306,0,0,0,.01-.04.1.1,0,0,0-.006-.025h-.088c-.806,0-1.611,0-2.418,0-.08,0-.1-.023-.1-.1.006-.168,0-.339,0-.509,0-.027,0-.054,0-.09H71.6V70.9H69.186v-.7c.031,0,.059,0,.088,0q2.681,0,5.361,0c.082,0,.1.025.1.1-.006.168-.006.339,0,.509,0,.075-.021.094-.094.094q-1.114,0-2.225,0c-.109,0-.109,0-.109.107,0,.417,0,.834,0,1.251,0,.08.023.1.1.1q1.243,0,2.484,0h.121c0,.228,0,.44,0,.654,0,.015-.029.04-.046.042a.591.591,0,0,1-.117,0H72.491c-.027,0-.054,0-.094.006.011.048.017.086.029.124a3.371,3.371,0,0,0,.93,1.467,7.884,7.884,0,0,0,1.632,1.173l.046.029C74.923,76.059,74.81,76.258,74.691,76.468Zm2.055-.58c-.228.2-.48.365-.723.547a.5.5,0,0,1-.067.036c-.057-.1-.111-.193-.166-.289s-.09-.166-.142-.245c-.036-.057-.023-.084.031-.117a3.423,3.423,0,0,0,.719-.576,1.016,1.016,0,0,0,.295-.729c0-.163,0-.327,0-.509l-.719.425c-.121-.2-.237-.4-.36-.6l.446-.268c.193-.115.388-.228.58-.344a.122.122,0,0,0,.057-.078c0-.226,0-.45,0-.675a.093.093,0,0,0-.011-.033l-.71.419c-.017-.025-.034-.046-.048-.069-.094-.155-.184-.31-.279-.463-.034-.054-.023-.077.031-.107.32-.186.635-.377.953-.563a.111.111,0,0,0,.065-.113c0-.067,0-.134-.006-.2a.38.38,0,0,0-.352-.406,4.888,4.888,0,0,0-.6-.046c-.067,0-.092-.015-.092-.086,0-.2,0-.4,0-.6.011-.008.017-.013.021-.013a2.24,2.24,0,0,1,1.14.166.981.981,0,0,1,.578.863c.025.423.019.849.019,1.274,0,.628-.015,1.255,0,1.883A1.827,1.827,0,0,1,76.746,75.889Zm5.248-3.417v2.983A1.03,1.03,0,0,1,80.948,76.5H78.832a1.03,1.03,0,0,1-1.043-1.041V72.339h4.206Zm-.084-1.142c-.165,0-.327,0-.492,0h-.092c0,.155,0,.3,0,.448,0,.082-.017.113-.105.109-.166-.008-.333,0-.5,0-.031,0-.059,0-.1,0v-.541a.7.7,0,0,0-.08-.008q-.654,0-1.309,0c-.069,0-.094.017-.09.088.006.134,0,.266,0,.4,0,.05-.015.069-.067.067-.189,0-.379,0-.566,0-.063,0-.073-.027-.073-.08,0-.155,0-.31,0-.474H77.8v-.7h.647v-.346c0-.107,0-.107.109-.107h.6v.446h1.477v-.339c0-.107,0-.107.109-.107.165,0,.327,0,.492,0,.078,0,.109.017.1.1-.008.113,0,.226,0,.352h.664c0,.044.006.082.006.119,0,.166,0,.333,0,.5,0,.067-.025.084-.088.082Z" transform="translate(-66.9 -66.5)" fill="#da0b06"/>
  <path id="路径_1206" data-name="路径 1206" d="M765.545,408.2c0-.057-.044-.048-.078-.048-.3,0-.6,0-.9,0-.021,0-.042,0-.067.006v1.014h1.045Z" transform="translate(-751.152 -401.619)" fill="#da0b06"/>
  <path id="路径_1207" data-name="路径 1207" d="M176.634,260.677c0,.228,0,.44,0,.654,0,.015-.029.04-.046.042a.59.59,0,0,1-.117,0H174.11c-.027,0-.054,0-.094.006.011.048.017.086.029.124a3.371,3.371,0,0,0,.93,1.467,7.883,7.883,0,0,0,1.632,1.173l.046.029-.344.61a6.342,6.342,0,0,1-2.732-2.543,6.326,6.326,0,0,1-2.734,2.543l-.342-.608c.134-.08.264-.155.39-.233a6.561,6.561,0,0,0,1.529-1.225,3.106,3.106,0,0,0,.706-1.278.305.305,0,0,0,.01-.04.1.1,0,0,0-.006-.025h-.088c-.806,0-1.611,0-2.418,0-.08,0-.1-.023-.1-.1.006-.168,0-.339,0-.509,0-.027,0-.054,0-.09h2.686v-1.458H170.8v-.7c.031,0,.059,0,.088,0q2.681,0,5.361,0c.082,0,.1.025.1.1-.006.168-.006.339,0,.509,0,.075-.021.094-.094.094q-1.114,0-2.225,0c-.109,0-.109,0-.109.107,0,.417,0,.834,0,1.251,0,.08.023.1.1.1q1.243,0,2.484,0Zm2.772-.013h4.206v3.111a1.03,1.03,0,0,1-1.047,1.045h-2.116a1.03,1.03,0,0,1-1.043-1.041v-3.115Zm2.459,1.712h1.045V261.4c0-.057-.044-.048-.078-.048-.3,0-.6,0-.9,0-.021,0-.042,0-.067.006Zm-1.749-1.014v1.014h1.035v-1.014Zm2.793,1.732h-1.043v1.027c.239,0,.471,0,.7,0a.331.331,0,0,0,.339-.344c0-.18,0-.362,0-.541Zm-2.8,0v.677a.333.333,0,0,0,.348.352c.209,0,.417,0,.624,0,.023,0,.048,0,.071-.006v-1.024Zm-2.516-.333c-.121-.2-.237-.4-.36-.6l.446-.268c.193-.115.388-.228.58-.344a.122.122,0,0,0,.057-.078c0-.226,0-.45,0-.675a.093.093,0,0,0-.011-.033l-.71.419c-.017-.025-.034-.046-.048-.069-.094-.155-.184-.31-.279-.463-.034-.054-.023-.077.031-.107.32-.186.635-.377.953-.562a.111.111,0,0,0,.065-.113c0-.067,0-.134-.006-.2a.38.38,0,0,0-.352-.406,4.889,4.889,0,0,0-.6-.046c-.067,0-.092-.015-.092-.086,0-.2,0-.4,0-.6.011-.008.017-.013.021-.013a2.24,2.24,0,0,1,1.14.166.981.981,0,0,1,.578.863c.025.423.019.849.019,1.274,0,.628-.015,1.255,0,1.883a1.837,1.837,0,0,1-.658,1.51c-.228.2-.48.365-.723.547a.509.509,0,0,1-.067.036c-.057-.1-.111-.193-.166-.289s-.09-.166-.142-.245c-.036-.057-.023-.084.031-.117a3.423,3.423,0,0,0,.719-.576,1.016,1.016,0,0,0,.295-.729c0-.163,0-.327,0-.509C178.067,262.475,177.836,262.613,177.593,262.756Zm5.35-3.809h.664c0,.044.006.082.006.119,0,.166,0,.333,0,.5,0,.069-.023.084-.086.082-.165,0-.327,0-.492,0h-.092c0,.155,0,.3,0,.448,0,.082-.017.113-.105.109-.166-.008-.333,0-.5,0-.031,0-.059,0-.1,0v-.541a.7.7,0,0,0-.08-.008q-.654,0-1.309,0c-.069,0-.094.017-.09.088.006.134,0,.266,0,.4,0,.05-.015.069-.067.067-.189,0-.379,0-.566,0-.063,0-.073-.027-.073-.08,0-.155,0-.31,0-.474h-.647v-.7h.647V258.6c0-.107,0-.107.109-.107h.6v.446h1.477V258.6c0-.107,0-.107.109-.107.165,0,.327,0,.492,0,.078,0,.109.017.1.1C182.937,258.708,182.942,258.821,182.942,258.947Z" transform="translate(-168.518 -254.82)" fill="#fff"/>
</svg>
