<svg id="组_2483" data-name="组 2483" xmlns="http://www.w3.org/2000/svg" width="13.946" height="13.946" viewBox="0 0 13.946 13.946">
  <path id="路径_1237" data-name="路径 1237" d="M342.459,297.913q-.095-.249-.156-.4a1.484,1.484,0,0,0-.151-.279.7.7,0,0,0-.235-.212.728.728,0,0,0-.363-.082.72.72,0,0,0-.359.082.684.684,0,0,0-.235.216,1.747,1.747,0,0,0-.168.335l-.135.345-1.315,3.338q-.081.2-.116.312a.728.728,0,0,0-.035.217.44.44,0,0,0,.151.326.488.488,0,0,0,.347.144.39.39,0,0,0,.333-.135,2.308,2.308,0,0,0,.245-.521l.245-.659h2.09l.245.645q.049.119.117.275a1.1,1.1,0,0,0,.128.231.431.431,0,0,0,.147.119.466.466,0,0,0,.21.044.49.49,0,0,0,.359-.149.456.456,0,0,0,.149-.328,1.668,1.668,0,0,0-.158-.551Zm-1.673,2.248.761-2.121.775,2.121Z" transform="translate(-334.571 -292.898)" fill="#fff"/>
  <path id="路径_1238" data-name="路径 1238" d="M12.805,10.775a6.9,6.9,0,0,0,1.14-3.8,6.99,6.99,0,1,0-3.892,6.25l2.286.687a.868.868,0,0,0,1.081-1.081l-.616-2.054Zm-.139,2.38a.106.106,0,0,1-.108.027l-2.429-.729-.148-.044-.137.072a6.211,6.211,0,1,1,3.342-5.507A6.147,6.147,0,0,1,12.079,10.5l-.1.15.053.175.666,2.22a.109.109,0,0,1-.027.108Z" transform="translate(0)" fill="#fff"/>
</svg>
