<svg xmlns="http://www.w3.org/2000/svg" width="19.376" height="17.726" viewBox="0 0 19.376 17.726">
  <g id="组_2568" data-name="组 2568" transform="translate(-64.692 -62.633)">
    <path id="路径_1245" data-name="路径 1245" d="M345.64,368.048a1.867,1.867,0,0,0-1.865,1.865.606.606,0,1,0,1.212,0,.653.653,0,1,1,.653.653.606.606,0,0,0-.606.606V372a.606.606,0,1,0,1.212,0v-.325a1.865,1.865,0,0,0-.606-3.629Z" transform="translate(-273.009 -298.768)"/>
    <path id="路径_1246" data-name="路径 1246" d="M401.692,598.894m-.618,0a.618.618,0,1,0,.618-.618A.618.618,0,0,0,401.074,598.894Z" transform="translate(-329.061 -523.986)"/>
    <path id="路径_1247" data-name="路径 1247" d="M79.206,259.7H65.882a1.192,1.192,0,0,0-1.191,1.191v8.611a1.192,1.192,0,0,0,1.191,1.191H69.6l-.175,1.351a.878.878,0,0,0,.132.736.865.865,0,0,0,.7.359.915.915,0,0,0,.464-.129.527.527,0,0,0,.051-.034l3.09-2.282h5.337a1.192,1.192,0,0,0,1.191-1.191v-8.611A1.192,1.192,0,0,0,79.206,259.7Zm-5.537,9.781a.6.6,0,0,0-.36.118l-2.591,1.913.174-1.348a.606.606,0,0,0-.6-.683l-4.388.021-.021-8.59,13.3-.021.021,8.59Z" transform="translate(0 -192.782)"/>
    <path id="路径_1248" data-name="路径 1248" d="M334.293,62.633H322.779a1.137,1.137,0,0,0-1.135,1.135v2h1.212V63.845h11.361v7.643H333V72.7h1.3a1.137,1.137,0,0,0,1.135-1.135v-7.8a1.137,1.137,0,0,0-1.135-1.135Z" transform="translate(-251.36 0)"/>
  </g>
</svg>
