<?xml version="1.0" standalone="no"?><!DOCTYPE svg PUBLIC "-//W3C//DTD SVG 1.1//EN" "http://www.w3.org/Graphics/SVG/1.1/DTD/svg11.dtd"><svg t="1600927518669" class="icon" viewBox="0 0 1024 1024" version="1.1" xmlns="http://www.w3.org/2000/svg" p-id="1193" xmlns:xlink="http://www.w3.org/1999/xlink" width="200" height="200"><defs><style type="text/css"></style></defs><path d="M822.0039673 413.19143677L682.05599976 413.19143678c-17.85379943 0-32.29502563-14.46578064-32.29502564-32.2965912 0-17.82932739 14.44205018-32.29502563 32.29502564-32.29502562l56.18015441-1e-8c-50.67765198-71.60874939-134.01205445-118.41751099-228.42471313-118.41751099-154.58340454 0-279.897583 125.31500244-279.89758301 279.89593506 0 154.58258057 125.31500244 279.89675903 279.89758301 279.89675903 154.58258057 0 279.89675903-125.31500244 279.89675904-279.89675903 0-17.82932739 14.44130859-32.29502563 32.29428404-32.29502564 17.83081054 0 32.29741516 14.46578064 32.29741517 32.29502564 0 190.25491333-154.24804688 344.48895263-344.48895263 344.48895264-190.24337768 0-344.4897766-154.23321533-344.48977661-344.48895264 0-190.25408935 154.24639893-344.48812867 344.48977661-344.48812867 115.46109008 0 217.44277954 56.92560425 279.89675902 144.1419983l0-58.01959534c0-17.83081054 14.44130859-32.29584961 32.29428406-32.29584961 17.83081054 0 32.29741516 14.46503906 32.29741516 32.29584961l0 129.18273926C854.30130005 398.72573852 839.83312989 413.19143677 822.0039673 413.19143677Z" p-id="1194"></path></svg>