<svg xmlns="http://www.w3.org/2000/svg" width="16" height="16" viewBox="0 0 16 16">
  <path id="路径_677" data-name="路径 677" d="M17.434,8.141l-1.752-.584q-.052-.135-.112-.268L16.4,5.637a.571.571,0,0,0-.107-.66L14.674,3.361a.57.57,0,0,0-.66-.107l-1.652.826q-.133-.059-.268-.112L11.51,2.217a.571.571,0,0,0-.542-.391H8.682a.571.571,0,0,0-.542.391L7.556,3.968q-.135.052-.268.112L5.636,3.254a.57.57,0,0,0-.66.107L3.36,4.977a.571.571,0,0,0-.107.66l.826,1.652q-.059.132-.112.268l-1.752.584a.571.571,0,0,0-.391.542v2.286a.571.571,0,0,0,.391.542l1.752.584q.053.136.112.268l-.826,1.652a.571.571,0,0,0,.107.66l1.616,1.616a.57.57,0,0,0,.66.107l1.652-.826q.133.059.268.112l.584,1.752a.571.571,0,0,0,.542.391h2.286a.572.572,0,0,0,.542-.391l.583-1.751q.135-.053.268-.112l1.652.826a.571.571,0,0,0,.66-.107l1.616-1.616a.571.571,0,0,0,.107-.66l-.826-1.652q.059-.133.112-.268l1.752-.584a.571.571,0,0,0,.391-.542V8.683A.571.571,0,0,0,17.434,8.141Zm-.752,2.416-1.623.541a.57.57,0,0,0-.361.36,5.108,5.108,0,0,1-.274.657.571.571,0,0,0,0,.51l.766,1.532-1.033,1.033-1.532-.766a.572.572,0,0,0-.51,0,5.142,5.142,0,0,1-.657.274.572.572,0,0,0-.362.361l-.54,1.623H9.094L8.553,15.06a.57.57,0,0,0-.36-.361,5.108,5.108,0,0,1-.657-.274.571.571,0,0,0-.51,0l-1.532.766L4.459,14.158l.766-1.532a.572.572,0,0,0,0-.511,5.122,5.122,0,0,1-.274-.656.57.57,0,0,0-.361-.36l-1.623-.541V9.095l1.623-.541a.571.571,0,0,0,.361-.36,5.082,5.082,0,0,1,.273-.655.572.572,0,0,0,0-.512L4.46,5.494,5.493,4.46l1.532.766a.57.57,0,0,0,.512,0,5.077,5.077,0,0,1,.655-.273.57.57,0,0,0,.36-.361l.541-1.623h1.462L11.1,4.592a.57.57,0,0,0,.36.361,5.108,5.108,0,0,1,.657.274.575.575,0,0,0,.51,0l1.532-.766,1.033,1.033-.766,1.532a.572.572,0,0,0,0,.511,5.12,5.12,0,0,1,.274.656.57.57,0,0,0,.361.36l1.623.541v1.462ZM9.825,6.969a2.857,2.857,0,1,0,2.857,2.857A2.858,2.858,0,0,0,9.825,6.969Zm0,4.571a1.714,1.714,0,1,1,1.714-1.714A1.716,1.716,0,0,1,9.825,11.54Z" transform="translate(-1.825 -1.826)" />
</svg>
