<?xml version="1.0" standalone="no"?><!DOCTYPE svg PUBLIC "-//W3C//DTD SVG 1.1//EN" "http://www.w3.org/Graphics/SVG/1.1/DTD/svg11.dtd"><svg t="1597820186987" class="icon" viewBox="0 0 1024 1024" version="1.1" xmlns="http://www.w3.org/2000/svg" p-id="2150" xmlns:xlink="http://www.w3.org/1999/xlink" width="200" height="200"><defs><style type="text/css"></style></defs><path d="M868.134 197.335c-126.267-5.524-243.485-50.72-345.67-123.207l-9.319-6.59-9.29 6.59c-102.154 72.486-219.387 117.683-345.692 123.207h-18.682v296.702c0 218.867 151.832 412.505 369.333 462.779l5.146 0.807 3.596-0.822c217.412-50.252 369.252-243.897 369.252-462.764V197.335h-18.674z m-354.99-74.166c97.78 66.943 205.819 100.919 324.268 110.381v285.17C810.01 841.823 515.776 907.875 510.977 908.932v-1.01S216.2 843.457 188.572 517.697V233.569c1.778-0.142 3.559-0.279 5.332-0.431 116.528-10.014 222.87-43.983 319.24-109.969z" p-id="2151" fill="#8590A6"></path><path d="M296.106 498.589L447.53 655.433h0.717c5.308 10.518 16.202 17.737 28.788 17.737s23.48-7.219 28.787-17.737h0.377l227.707-241.754c8.44-4.816 14.135-13.893 14.135-24.306 0-15.448-12.522-27.97-27.97-27.97-11.445 0-21.278 6.877-25.61 16.722L477.458 608.713c-0.14-0.002-0.28-0.01-0.421-0.01-0.7 0-1.393 0.03-2.082 0.073L334.163 460.992c-4.677-8.913-14.014-14.995-24.778-14.995-15.447 0-27.97 12.523-27.97 27.97 0 10.642 5.944 19.894 14.69 24.622z" p-id="2152" fill="#8590A6"></path></svg>