<svg xmlns="http://www.w3.org/2000/svg" width="12" height="11.997" viewBox="0 0 12 11.997">
  <path id="路径_1046" data-name="路径 1046" d="M11.586,4.124H.376A.354.354,0,0,1,0,3.749a.354.354,0,0,1,.375-.375H10.761L8.024.637a.362.362,0,0,1,0-.525.362.362,0,0,1,.525,0l3.337,3.3a.4.4,0,0,1,.075.45.451.451,0,0,1-.375.262ZM3.713,12a.34.34,0,0,1-.262-.112L.114,8.585a.4.4,0,0,1-.075-.45.451.451,0,0,1,.375-.262h11.21a.375.375,0,1,1,0,.75H1.239L3.975,11.36a.362.362,0,0,1,0,.525A.34.34,0,0,1,3.713,12Z" transform="translate(0)" fill="#6d6d6d"/>
</svg>
