<svg xmlns="http://www.w3.org/2000/svg" width="33.68" height="37.085" viewBox="0 0 33.68 37.085">
  <defs>
    <style>
      .cls-1 {
        fill: #1878f3;
        fill-rule: evenodd;
      }
    </style>
  </defs>
  <path id="形状结合" class="cls-1" d="M927.469.572c8.547,2.382,12.508,11.522,8.846,20.413a20.267,20.267,0,0,1-7.433,9.047l.8,7.052-15.476-4.314c-8.547-2.382-12.508-11.522-8.847-20.413S918.922-1.81,927.469.572Zm-7.1,15.614a56.186,56.186,0,0,0-9.151.652,7.692,7.692,0,0,0,7.743,9.131,10.866,10.866,0,0,0,10.371-9.131A52.859,52.859,0,0,0,920.369,16.187Z" transform="translate(-904)"/>
</svg>
