<?xml version="1.0" standalone="no"?><!DOCTYPE svg PUBLIC "-//W3C//DTD SVG 1.1//EN" "http://www.w3.org/Graphics/SVG/1.1/DTD/svg11.dtd"><svg t="1598001954510" class="icon" viewBox="0 0 1040 1024" version="1.1" xmlns="http://www.w3.org/2000/svg" p-id="5506" xmlns:xlink="http://www.w3.org/1999/xlink" width="203.125" height="200"><defs><style type="text/css"></style></defs><path d="M947.393251 679.125345 674.853042 679.125345l143.716192-556.918026c3.51915-13.677511-4.727675-27.656897-18.411325-31.184233-13.644765-3.545756-27.646664 4.678556-31.214932 18.386766L721.04713 295.052946 364.271424 295.052946l44.60694-172.84051c3.527336-13.675464-4.727675-27.646664-18.402115-31.174-13.661138-3.553942-27.65485 4.678556-31.208792 18.378579l-47.900963 185.645141L76.8022 295.062156c-14.114462 0-25.594935 11.480472-25.594935 25.603121 0 14.155395 11.488659 25.596981 25.594935 25.596981L298.143331 346.262258l-85.904509 332.872297L25.611308 679.134555c-14.130835 0-25.611308 11.480472-25.611308 25.603121 0 14.155395 11.488659 25.596981 25.611308 25.596981l173.439144 0-44.60694 172.830277c-3.527336 13.691837 4.694929 27.65485 18.394952 31.214932 2.156106 0.551562 4.304026 0.791016 6.402827 0.791016 11.408841 0 21.828145-7.656377 24.805966-19.199271l147.026588-569.732889 356.768543 0L621.937878 679.117159 384.087749 679.117159c-14.155395 0-25.596981 11.480472-25.596981 25.594935 0 14.163581 11.441587 25.605168 25.596981 25.605168l224.645386 0-44.604894 172.830277c-3.521197 13.691837 4.733814 27.65485 18.409279 31.216979 2.156106 0.541329 4.312212 0.788969 6.427386 0.788969 11.376095 0 21.779026-7.656377 24.781406-19.199271l47.900963-185.645141 285.769512 0c14.155395 0 25.594935-11.449773 25.594935-25.596981 0-14.130835-11.455913-25.611308-25.611308-25.611308L947.393251 679.125345zM998.617913 295.052946 896.193149 295.052946c-14.155395 0-25.594935 11.480472-25.594935 25.594935 0 14.155395 11.43954 25.596981 25.594935 25.596981l102.424764 0c14.153348 0 25.594935-11.441587 25.594935-25.596981C1024.212848 306.517045 1012.771261 295.052946 998.617913 295.052946L998.617913 295.052946zM998.617913 295.052946" p-id="5507" fill="#333" ></path></svg>
