<svg xmlns="http://www.w3.org/2000/svg" width="16.069" height="16.069" viewBox="0 0 16.069 16.069">
  <path id="路径_1177" data-name="路径 1177" d="M171.677,195.474a.574.574,0,0,1-.574-.574v-6.313a.574.574,0,1,1,1.148,0V194.9a.573.573,0,0,1-.574.574m-3.444,0a.574.574,0,0,1-.574-.574v-6.313a.574.574,0,1,1,1.148,0V194.9a.574.574,0,0,1-.574.574m9.183-9.755h-2.87V184.57a1.717,1.717,0,0,0-1.709-1.722h-5.752a1.724,1.724,0,0,0-1.721,1.722v1.148h-2.871a.574.574,0,0,0,0,1.148h14.922a.574.574,0,0,0,0-1.148m-10.9-1.148a.575.575,0,0,1,.574-.574h5.752a.561.561,0,0,1,.561.574v1.148h-6.887V184.57m7.463,14.347h-8.037a1.723,1.723,0,0,1-1.721-1.721v-8.617a.574.574,0,1,1,1.148,0V197.2a.575.575,0,0,0,.574.574h8.037a.574.574,0,0,0,.574-.574V188.6a.574.574,0,1,1,1.148,0V197.2a1.725,1.725,0,0,1-1.723,1.721M173.975,198.917Z" transform="translate(-161.92 -182.848)" fill="#8590a6"/>
</svg>
