<svg xmlns="http://www.w3.org/2000/svg" width="19.005" height="19.005" viewBox="0 0 19.005 19.005">
  <g id="组_1902" data-name="组 1902" transform="translate(0.5 0.5)">
    <path id="Fill_" data-name="Fill " d="M0,9a9,9,0,1,1,9,9A9.013,9.013,0,0,1,0,9Z" fill="none" stroke="#d0d4dc" stroke-width="1"/>
    <path id="Shape" d="M3.179,6.233a.406.406,0,0,1-.289-.12L.12,3.344A.409.409,0,1,1,.7,2.765L3.18,5.245,8.3.12A.409.409,0,0,1,8.883.7L3.469,6.113a.409.409,0,0,1-.289.119Z" transform="translate(4.501 5.729)" fill="none"/>
  </g>
</svg>
