<svg xmlns="http://www.w3.org/2000/svg" width="14.016" height="11.176" viewBox="0 0 14.016 11.176">
  <g id="组_2338" data-name="组 2338" transform="translate(-1089 -128.5)">
    <path id="路径_1202" data-name="路径 1202" d="M670.281,550.885m-2.31,0a2.31,2.31,0,1,0,2.31-2.31A2.31,2.31,0,0,0,667.972,550.885Z" transform="translate(426.028 -413.518)" fill="#b5b5b5"/>
    <path id="路径_1203" data-name="路径 1203" d="M138.473,324.227a8.057,8.057,0,0,0-6.89,3.634.656.656,0,1,0,1.117.687,7.036,7.036,0,0,1,11.57.044.658.658,0,1,0,1.125-.682,8.046,8.046,0,0,0-6.921-3.682ZM135.8,321.9a.64.64,0,0,0-.253.049.658.658,0,0,0-.354.86l1.041,2.49a.658.658,0,1,0,1.214-.505l-1.041-2.49A.658.658,0,0,0,135.8,321.9Zm-3.492,1.959a.648.648,0,0,0-.518.253.656.656,0,0,0,.115.922l2,1.538a.656.656,0,1,0,.8-1.037l-2-1.542A.654.654,0,0,0,132.309,323.859Zm8.862-1.959a.658.658,0,0,0-.607.4l-1.041,2.49a.658.658,0,1,0,1.214.505l1.041-2.49a.654.654,0,0,0-.354-.86A.626.626,0,0,0,141.171,321.9Zm3.492,1.959a.665.665,0,0,0-.4.133l-2,1.542a.656.656,0,1,0,.8,1.037l2-1.538a.654.654,0,0,0-.4-1.174Z" transform="translate(957.526 -193.4)" fill="#b5b5b5"/>
  </g>
</svg>
