<svg xmlns="http://www.w3.org/2000/svg" width="50" height="50" viewBox="0 0 50 50">
  <g id="组_2575" data-name="组 2575" transform="translate(-644 -489)">
    <circle id="椭圆_3" data-name="椭圆 3" cx="25" cy="25" r="25" transform="translate(644 489)" fill="#c9ced7" opacity="0.13"/>
    <path id="路径_2586" data-name="路径 2586" d="M109.244,80.65a6.169,6.169,0,0,0-3.116-11.53A6.119,6.119,0,0,0,99.9,75.2a6.032,6.032,0,0,0,3.116,5.3A10.064,10.064,0,0,0,96,89.843c0,.623.312.935.779.935A.736.736,0,0,0,97.558,90a8.571,8.571,0,0,1,17.14,0,.779.779,0,0,0,1.558,0A10.064,10.064,0,0,0,109.244,80.65ZM101.454,75.2a4.674,4.674,0,1,1,4.674,4.674A4.591,4.591,0,0,1,101.454,75.2Z" transform="translate(563 433.88)" fill="#8590a6"/>
  </g>
</svg>
