<svg id="组_2118" data-name="组 2118" xmlns="http://www.w3.org/2000/svg" width="28.401" height="21.756" viewBox="0 0 28.401 21.756">
  <path id="路径_1122" data-name="路径 1122" d="M18.09,154.317H4.458A4.061,4.061,0,0,1,.4,150.255V136.622a4.06,4.06,0,0,1,4.062-4.061H18.091a4.06,4.06,0,0,1,4.061,4.061v13.633a4.061,4.061,0,0,1-4.062,4.061ZM4.458,134.577a2.025,2.025,0,0,0-2.017,2.017v13.633a2.025,2.025,0,0,0,2.017,2.016H18.091a2.024,2.024,0,0,0,2.016-2.016v-13.6a2.025,2.025,0,0,0-2.016-2.017H4.458v-.028Zm0,0" transform="translate(-0.396 -132.561)" fill="#777"/>
  <path id="路径_1123" data-name="路径 1123" d="M717.557,230.1a2.425,2.425,0,0,1-1.733-.767l-4.544-4.516a1.024,1.024,0,0,1,1.449-1.448l4.544,4.516c.171.171.284.171.312.171s.057-.057.057-.171V214.651c0-.114-.028-.171-.057-.171a.4.4,0,0,0-.312.171l-4.544,4.544a1.024,1.024,0,0,1-1.449-1.448l4.544-4.545a2.287,2.287,0,0,1,2.528-.6,2.166,2.166,0,0,1,1.306,2.045v13.263a2.165,2.165,0,0,1-1.306,2.045A1.962,1.962,0,0,1,717.557,230.1Zm0,0" transform="translate(-691.258 -210.22)" fill="#777"/>
</svg>
