<svg xmlns="http://www.w3.org/2000/svg" width="63.106" height="62.397" viewBox="0 0 63.106 62.397">
  <g id="组_1682" data-name="组 1682" opacity="0.7">
    <ellipse id="椭圆_23" data-name="椭圆 23" cx="28.5" cy="12.5" rx="28.5" ry="12.5" transform="translate(6.106 18.478)" fill="#fff"/>
    <path id="路径_700" data-name="路径 700" d="M0,31.2A31.2,31.2,0,1,1,31.2,62.4,31.2,31.2,0,0,1,0,31.2Zm40.792.69a.9.9,0,0,0,0-1.379L26.127,18a1.058,1.058,0,0,0-.721-.273,1.008,1.008,0,0,0-1.059.96V43.705a1.008,1.008,0,0,0,1.059.96,1.082,1.082,0,0,0,.721-.273l14.666-12.5Z" transform="translate(0 0)"/>
  </g>
</svg>
