<?xml version="1.0" standalone="no"?><!DOCTYPE svg PUBLIC "-//W3C//DTD SVG 1.1//EN" "http://www.w3.org/Graphics/SVG/1.1/DTD/svg11.dtd"><svg t="1609298663394" class="icon" viewBox="0 0 1024 1024" version="1.1" xmlns="http://www.w3.org/2000/svg" p-id="4804" xmlns:xlink="http://www.w3.org/1999/xlink" width="64" height="64"><defs><style type="text/css"></style></defs><path d="M391.432842 0h231.058918a84.328072 84.328072 0 0 1 83.243855 85.321939V1023.983737h-397.546627V85.321939A84.328072 84.328072 0 0 1 391.432842 0z m240.455475 950.97972V76.889132h-244.641762v874.090588z" fill="#1878F3" p-id="4805"></path><path d="M85.321939 255.483942l226.962984 2.078085c47.133369 0 74.238821 39.152319 74.23882 86.345923v597.70533a78.304639 78.304639 0 0 1-79.9912 82.34034H85.321939A85.352056 85.352056 0 0 1 0 938.571446V340.866116a85.352056 85.352056 0 0 1 85.321939-85.382174z m-18.40159 69.269488v627.942968l245.334456 2.078085v-627.942968zM704.741748 468.954434h233.769464A85.352056 85.352056 0 0 1 1023.983737 554.336608v384.234838a85.352056 85.352056 0 0 1-85.321939 85.382174H704.741748c-47.133369 0-72.281205-38.218687-72.281205-85.382174V546.626612a68.877965 68.877965 0 0 1 72.281205-77.672178z m0 77.672178v406.039669h241.750514V546.626612z" fill="#1878F3" p-id="4806"></path></svg>