<svg id="组_1909" data-name="组 1909" xmlns="http://www.w3.org/2000/svg" width="18.093" height="18.547" viewBox="0 0 18.093 18.547">
  <path id="路径_943" data-name="路径 943" d="M148.285,97.029a1.849,1.849,0,0,0-1.836-1.824h-14.42a1.844,1.844,0,0,0-1.836,1.836v9.146a1.849,1.849,0,0,0,1.836,1.824h14.408a1.847,1.847,0,0,0,1.728-1.224l.06-.18.024-.144.024-.336v-.12Zm-7.75,3.649h.036a2.035,2.035,0,0,0,.468,0,1.672,1.672,0,0,1,.78.072.492.492,0,0,1,.252.5.509.509,0,0,1-.372.444,6.578,6.578,0,0,1-.972.024c-.192,0-.408-.012-.6,0h-.084v.972h1.488a.508.508,0,0,1,.54.468.462.462,0,0,1-.132.4.507.507,0,0,1-.42.18h-1.476v.7c0,.276,0,.564-.012.84a.474.474,0,0,1-.192.36.486.486,0,0,1-.324.132h-.048a.549.549,0,0,1-.48-.492c-.012-.276-.012-.564-.012-.84v-.7h-.708c-.276,0-.516.012-.768,0a.532.532,0,0,1-.384-.144.52.52,0,0,1-.156-.36.5.5,0,0,1,.456-.528c.288-.024.6-.012.876-.012H139v-.972h-.084a5.207,5.207,0,0,0-.612,0,3.543,3.543,0,0,1-1.02-.06.486.486,0,0,1-.312-.48.511.511,0,0,1,.3-.48,2.648,2.648,0,0,1,.756-.036c.144,0,.312.012.456,0h.024l.288-.288-.06-.06c-.228-.24-.468-.468-.672-.672-.3-.3-.636-.636-.96-.972a.447.447,0,0,1-.12-.444.56.56,0,0,1,.336-.408h.012a.571.571,0,0,1,.624.192l1.6,1.608.06-.06.708-.708.036-.036c.252-.252.5-.516.756-.756s.432-.312.636-.252a.514.514,0,0,1,.36.372.45.45,0,0,1-.12.456c-.252.264-.516.528-.768.78l-.024.024c-.288.276-.576.576-.864.876l-.048.048.252.312Zm-3.793-9.686a.559.559,0,0,1,.72-.36l6.661,2.2a.611.611,0,0,1,.336.288.57.57,0,0,1,.024.444l-.18.54a.471.471,0,0,0,.36.528.782.782,0,0,0,.684-.06l.216-.636a1.7,1.7,0,0,0-1.08-2.148l-6.649-2.232a1.7,1.7,0,0,0-2.148,1.08c-.012.036-.024.324.468.468S136.742,90.992,136.742,90.992Z" transform="translate(-130.192 -89.464)"/>
  <path id="路径_944" data-name="路径 944" d="M258.588,168.98a1.368,1.368,0,0,1,.612-.84,1.349,1.349,0,0,1,.708-.2,1.49,1.49,0,0,1,.324.036l1.14.276L267.3,169.7a1.4,1.4,0,0,1,.84.612,1.515,1.515,0,0,1,.192.552s.012.108.012.2c0,.048-.072.132-.12.132H258.144c-.084,0-.1-.132-.1-.132Z" transform="translate(-255.051 -166.096)"/>
</svg>
