<?xml version="1.0" standalone="no"?><!DOCTYPE svg PUBLIC "-//W3C//DTD SVG 1.1//EN" "http://www.w3.org/Graphics/SVG/1.1/DTD/svg11.dtd"><svg t="1597736205597" class="icon" viewBox="0 0 1024 1024" version="1.1" xmlns="http://www.w3.org/2000/svg" p-id="2630" xmlns:xlink="http://www.w3.org/1999/xlink" width="200" height="200"><defs><style type="text/css"></style></defs><path d="M512 0a512 512 0 1 0 0 1024A512 512 0 0 0 512 0z m0 855.259429a65.243429 65.243429 0 1 1 0-130.486858 65.243429 65.243429 0 0 1 0 130.486858z m70.436571-258.486858a64.219429 64.219429 0 0 1-64 64h-12.873142a64.219429 64.219429 0 0 1-64-64V232.740571c0-35.181714 28.745143-64 64-64h12.873142c35.254857 0 64 28.818286 64 64V596.845714z" fill="#FA5151" p-id="2631"></path></svg>