<svg xmlns="http://www.w3.org/2000/svg" width="21.88" height="19.067" viewBox="0 0 21.88 19.067">
  <path id="路径_1056" data-name="路径 1056" d="M93.295,146.133a.7.7,0,0,1-.328.075.72.72,0,0,1-.635-.375l-.051-.1-2-4.305a.322.322,0,0,1-.025-.15.344.344,0,0,1,.355-.351.406.406,0,0,1,.228.075l2.358,1.652a1.238,1.238,0,0,0,.608.174,1.013,1.013,0,0,0,.38-.075L105.24,137.9a11.782,11.782,0,0,0-8.952-3.8c-6.035,0-10.955,4.03-10.955,9.007a8.466,8.466,0,0,0,3.777,6.806.736.736,0,0,1,.3.576.682.682,0,0,1-.051.225c-.176.675-.483,1.778-.483,1.826a.9.9,0,0,0-.052.276.344.344,0,0,0,.356.351.29.29,0,0,0,.2-.075l2.383-1.376a1.222,1.222,0,0,1,.583-.174,1.408,1.408,0,0,1,.328.051,12.893,12.893,0,0,0,3.576.5c6.035,0,10.955-4.03,10.955-9.007a7.834,7.834,0,0,0-1.243-4.179l-12.6,7.181-.076.051Z" transform="translate(-85.333 -134.095)" />
</svg>
