<svg xmlns="http://www.w3.org/2000/svg" width="31.555" height="31.562" viewBox="0 0 31.555 31.562">
  <path id="路径_1182" data-name="路径 1182" d="M64.177,72.759V64.236a1.662,1.662,0,0,1,1.708-1.678h8.508v1.887l-7.445-.015s-.824.12-.9.809c0,.734-.015,7.52-.015,7.52H64.177ZM85.531,62.551h8.523a1.662,1.662,0,0,1,1.678,1.708v8.508H93.844l.015-7.445s-.12-.824-.809-.9c-.734,0-7.52-.015-7.52-.015ZM64.177,83.9v8.523a1.662,1.662,0,0,0,1.708,1.678h8.508V92.218l-7.445.015s-.824-.12-.9-.809c0-.734-.015-7.52-.015-7.52ZM85.531,94.113h8.523a1.662,1.662,0,0,0,1.678-1.708V83.9H93.844l.015,7.445s-.12.824-.809.9c-.734,0-7.52.015-7.52.015ZM64.177,77.358H95.732v1.932H64.177Z" transform="translate(-64.177 -62.551)" fill="#09bb07"/>
</svg>
